<svg width="108" height="35" viewBox="0 0 108 35" fill="none" xmlns="http://www.w3.org/2000/svg">
<path d="M0.3895 34.5V30.708H8.3095V4.452H10.5655L1.1095 10.308V5.94L9.5575 0.659998H12.7735V30.708H20.2135V34.5H0.3895ZM37.6188 34.932C33.7468 34.932 30.7708 33.444 28.6908 30.468C26.6108 27.46 25.5708 23.156 25.5708 17.556C25.5708 11.86 26.6108 7.556 28.6908 4.644C30.7708 1.7 33.7468 0.227998 37.6188 0.227998C41.5228 0.227998 44.4988 1.7 46.5468 4.644C48.6268 7.556 49.6667 11.844 49.6667 17.508C49.6667 23.14 48.6268 27.46 46.5468 30.468C44.4668 33.444 41.4908 34.932 37.6188 34.932ZM37.6188 31.14C40.1788 31.14 42.0828 30.036 43.3308 27.828C44.6108 25.62 45.2508 22.18 45.2508 17.508C45.2508 12.836 44.6108 9.428 43.3308 7.284C42.0828 5.108 40.1788 4.02 37.6188 4.02C35.0908 4.02 33.1868 5.108 31.9068 7.284C30.6268 9.428 29.9868 12.836 29.9868 17.508C29.9868 22.18 30.6268 25.62 31.9068 27.828C33.1868 30.036 35.0908 31.14 37.6188 31.14ZM66.4 34.932C62.528 34.932 59.552 33.444 57.472 30.468C55.392 27.46 54.352 23.156 54.352 17.556C54.352 11.86 55.392 7.556 57.472 4.644C59.552 1.7 62.528 0.227998 66.4 0.227998C70.304 0.227998 73.28 1.7 75.328 4.644C77.408 7.556 78.448 11.844 78.448 17.508C78.448 23.14 77.408 27.46 75.328 30.468C73.248 33.444 70.272 34.932 66.4 34.932ZM66.4 31.14C68.96 31.14 70.864 30.036 72.112 27.828C73.392 25.62 74.032 22.18 74.032 17.508C74.032 12.836 73.392 9.428 72.112 7.284C70.864 5.108 68.96 4.02 66.4 4.02C63.872 4.02 61.968 5.108 60.688 7.284C59.408 9.428 58.768 12.836 58.768 17.508C58.768 22.18 59.408 25.62 60.688 27.828C61.968 30.036 63.872 31.14 66.4 31.14ZM93.5013 32.676V22.356H83.3253V19.092H93.5013V9.012H96.8613V19.092H107.037V22.356H96.8613V32.676H93.5013Z" fill="black"/>
</svg>
