<svg width="160" height="131" viewBox="0 0 160 131" fill="none" xmlns="http://www.w3.org/2000/svg">
<path d="M74.3668 99.6928C77.0055 104.512 80.8167 108.589 85.448 111.546C90.0794 114.503 95.3814 116.244 100.864 116.609C106.347 116.975 111.833 115.952 116.815 113.635C121.798 111.319 126.116 107.784 129.371 103.357C132.626 98.9297 134.712 93.7535 135.436 88.3068C136.161 82.86 135.501 77.3185 133.517 72.1945C131.533 67.0704 128.289 62.5293 124.085 58.9908C119.881 55.4523 114.853 53.0307 109.466 51.9498L103.036 83.9965L74.3668 99.6928Z" fill="black"/>
<path d="M72.6676 95.6219C75.2295 100.028 78.8167 103.764 83.1313 106.51C87.6583 109.391 92.8397 111.09 98.1964 111.45C103.553 111.809 108.912 110.818 113.778 108.568C118.644 106.317 122.859 102.881 126.035 98.5757C129.21 94.2706 131.244 89.2359 131.947 83.937C132.651 78.6381 132.001 73.2458 130.06 68.2583C128.118 63.2709 124.945 58.8492 120.836 55.4024C116.918 52.1161 112.269 49.8171 107.282 48.6947L101.028 79.8645L100.959 80.2079L100.651 80.3755L72.6676 95.6219Z" fill="white" stroke="black" stroke-width="1.5"/>
<path d="M99.0392 104.574C103.164 104.851 107.291 104.087 111.038 102.354C114.785 100.621 118.031 97.9747 120.477 94.6589C122.923 91.3431 124.489 87.4652 125.031 83.3838C125.573 79.3024 125.073 75.1491 123.577 71.3079C122.082 67.4667 119.638 64.0615 116.474 61.4072" stroke="black" stroke-width="1.5"/>
<mask id="path-4-inside-1_162_878" fill="white">
<path d="M10 34.6046L-nan -nanL10 34.6046C34.9029 20.8479 65.1264 20.8479 90.0292 34.6046L-nan -nanL90.0292 34.6046V103.437L50.0146 127.5L10 103.437V34.6046Z"/>
</mask>
<path d="M10 34.6046L-nan -nanL10 34.6046C34.9029 20.8479 65.1264 20.8479 90.0292 34.6046L-nan -nanL90.0292 34.6046V103.437L50.0146 127.5L10 103.437V34.6046Z" fill="white"/>
<path d="M90.0292 103.437L90.8023 104.722L91.5292 104.285V103.437H90.0292ZM10 103.437H8.5V104.285L9.22697 104.722L10 103.437ZM50.0146 127.5L49.2416 128.785L50.0146 129.25L50.7877 128.785L50.0146 127.5ZM88.5292 34.6046V103.437H91.5292V34.6046H88.5292ZM11.5 103.437V34.6046H8.5V103.437H11.5ZM89.2562 102.151L49.2416 126.215L50.7877 128.785L90.8023 104.722L89.2562 102.151ZM50.7877 126.215L10.773 102.151L9.22697 104.722L49.2416 128.785L50.7877 126.215ZM10.7253 35.9176C35.1768 22.4103 64.8525 22.4103 89.3039 35.9176L90.7546 33.2916C65.4003 19.2856 34.629 19.2856 9.27469 33.2916L10.7253 35.9176Z" fill="black" mask="url(#path-4-inside-1_162_878)"/>
<mask id="path-6-inside-2_162_878" fill="white">
<path d="M15 38.9138L-nan -nanL15 38.9138C36.7709 26.838 63.2291 26.838 85 38.9138L-nan -nanL85 38.9138V99.3663L50 120.5L15 99.3663V38.9138Z"/>
</mask>
<path d="M15 38.9138L-nan -nanL15 38.9138C36.7709 26.838 63.2291 26.838 85 38.9138L-nan -nanL85 38.9138V99.3663L50 120.5L15 99.3663V38.9138Z" fill="white"/>
<path d="M85 99.3663L85.7754 100.65L86.5 100.213V99.3663H85ZM15 99.3663H13.5V100.213L14.2246 100.65L15 99.3663ZM50 120.5L49.2247 121.784L50 122.252L50.7753 121.784L50 120.5ZM83.5 38.9138V99.3663H86.5V38.9138H83.5ZM16.5 99.3663V38.9138H13.5V99.3663H16.5ZM84.2246 98.0823L49.2247 119.216L50.7753 121.784L85.7754 100.65L84.2246 98.0823ZM50.7753 119.216L15.7754 98.0823L14.2246 100.65L49.2247 121.784L50.7753 119.216ZM15.7276 40.2255C37.0459 28.4007 62.9541 28.4007 84.2724 40.2255L85.7276 37.602C63.5041 25.2752 36.4959 25.2752 14.2724 37.602L15.7276 40.2255Z" fill="black" mask="url(#path-6-inside-2_162_878)"/>
<path fill-rule="evenodd" clip-rule="evenodd" d="M47.0441 55.6605C47.3155 55.5535 47.7797 55.425 48.0868 55.3679H48.0797C48.4868 55.2965 48.9939 55.2751 49.9223 55.2893C50.915 55.3107 51.3292 55.3536 51.7435 55.4607C52.0363 55.5392 52.4576 55.6748 52.6719 55.7605C52.8862 55.8461 53.179 55.9818 53.3147 56.0603C53.4504 56.146 53.736 56.3458 53.9503 56.5029C54.1646 56.6671 54.4716 56.9883 54.6431 57.2239C54.8073 57.4595 55.0216 57.8307 55.1073 58.0448C55.2501 58.3803 55.2715 58.5588 55.2715 59.2941C55.2715 59.958 55.2358 60.2435 55.1287 60.5433C55.0573 60.7575 54.8787 61.1216 54.743 61.3571C54.6073 61.5856 54.3074 61.9639 54.0788 62.1924C53.8575 62.4279 53.4575 62.7563 53.1861 62.9276C52.9219 63.099 52.5434 63.3131 52.3505 63.3988C52.1505 63.4916 51.7363 63.6486 51.4221 63.7557C51.1078 63.8628 50.715 63.9699 50.5436 63.9984C50.3794 64.0198 50.2437 64.0555 50.2437 64.077C50.2437 64.097 50.2936 64.1856 50.3526 64.2904L50.3651 64.3125C50.4365 64.4196 50.7936 64.9407 51.165 65.469C51.5364 65.9972 52.2148 66.9324 52.679 67.5392C53.1361 68.146 53.8503 69.0454 54.2645 69.538C54.6788 70.0306 55.193 70.6088 55.8072 71.2156L56.05 70.8229C56.1857 70.6088 56.3785 70.259 56.4857 70.0591C56.5856 69.8521 56.757 69.3809 56.857 69.024C57.0142 68.4743 57.0427 68.253 57.0213 67.7533C56.9927 67.2893 56.9427 67.0538 56.7999 66.7539C56.6928 66.5255 56.4714 66.2328 56.2643 66.0544C56.0786 65.8902 55.7786 65.7046 55.6001 65.6474C55.4215 65.5832 55.1573 65.5404 54.743 65.5404V64.8265H58.245V55.4302L66.2278 55.4302C71.7187 55.4302 76.1699 59.8814 76.1699 65.3723C76.1699 70.8632 71.7187 75.3144 66.2278 75.3144L57.1499 75.3139L57.1568 75.3101C56.9022 75.3161 56.6539 75.3004 56.3142 75.2632C55.8857 75.2132 55.293 75.0847 54.9216 74.9562C54.5645 74.8348 54.0717 74.6278 53.3504 74.2281L52.7433 74.485C52.4077 74.6207 51.9863 74.7849 51.7935 74.8491C51.6078 74.9134 51.2435 75.0133 50.9721 75.0704C50.7079 75.1275 50.2008 75.206 49.8509 75.2489C49.4938 75.2846 48.9153 75.3203 48.5653 75.3203C48.2082 75.3203 47.6155 75.2846 47.2441 75.2489C46.8727 75.206 46.3085 75.1275 45.9943 75.0633C45.68 74.999 45.1301 74.8491 44.7802 74.7349C44.4231 74.6135 43.9089 74.4065 43.6375 74.2709C43.3589 74.1281 42.9447 73.8854 42.709 73.7141C42.4733 73.5499 42.052 73.1715 41.7806 72.8789C41.7414 72.8371 41.703 72.7948 41.6654 72.7521C39.8582 74.3635 37.4854 75.315 34.9421 75.315C29.4513 75.315 25 70.8637 25 65.3728C25 59.8819 29.4513 55.4307 34.9421 55.4307H35.1845C37.4051 55.4307 39.576 56.088 41.4236 57.3197L39.4914 60.2181C38.2159 59.3678 36.7173 58.9141 35.1845 58.9141H34.9421C31.3751 58.9141 28.4834 61.8057 28.4834 65.3728C28.4834 68.9399 31.3751 71.8316 34.9421 71.8316C37.0617 71.8316 39.0005 70.8228 40.2257 69.1987H37.4821V65.7153H43.3576C43.4861 65.6477 43.6086 65.5866 43.7089 65.5404C43.9803 65.419 44.4731 65.2405 44.7944 65.1406C45.123 65.0478 45.3872 64.955 45.3872 64.9336C45.3872 64.9122 45.2515 64.6338 45.0801 64.3125C44.9087 63.9842 44.6587 63.4488 44.5159 63.1132C44.3731 62.7777 44.166 62.1995 44.066 61.8283C43.9446 61.3928 43.866 60.8789 43.8374 60.4006C43.8089 59.7795 43.8303 59.5368 43.9517 59.0085C44.0374 58.6516 44.2302 58.1376 44.3731 57.8664C44.5373 57.5594 44.8302 57.1668 45.1373 56.8598C45.4158 56.5743 45.8443 56.2388 46.1014 56.096C46.3585 55.9532 46.7799 55.7605 47.0441 55.6605ZM61.5107 71.8775V71.8311H66.2278C69.7949 71.8311 72.6865 68.9394 72.6865 65.3723C72.6865 61.8052 69.7949 58.9135 66.2278 58.9135H61.7284V64.8265H61.7388V65.6416C61.5612 65.6977 61.3678 65.7738 61.2064 65.8545C60.9279 65.9901 60.4708 66.3113 60.1923 66.5541C59.9066 66.8039 59.4781 67.2322 59.2353 67.5035C58.9924 67.7748 58.6639 68.1817 58.4997 68.3958C58.3282 68.61 57.7926 69.3809 57.307 70.1019C56.8213 70.8229 56.3785 71.4654 56.3285 71.5297C56.25 71.6296 56.3071 71.701 56.7928 72.0793C57.0999 72.322 57.5284 72.6147 57.7426 72.7289C57.9569 72.8503 58.314 73.0074 58.5282 73.0787C58.7568 73.1501 59.1281 73.2072 59.421 73.2072C59.8138 73.2072 60.0137 73.1644 60.328 73.0145C60.5565 72.9074 60.8922 72.6718 61.0707 72.4862C61.2105 72.3419 61.3625 72.1337 61.5107 71.8775ZM47.9583 56.3744C48.0583 56.2602 48.2654 56.1031 48.4225 56.0317C48.6439 55.9318 48.8296 55.9033 49.2438 55.9247C49.658 55.9389 49.8509 55.9889 50.1008 56.1317C50.2794 56.2316 50.5508 56.4529 50.7008 56.6243C50.8579 56.7956 51.0721 57.1311 51.1864 57.3667C51.2935 57.6022 51.4364 58.0377 51.5006 58.3304C51.5863 58.7373 51.6078 59.1013 51.5792 59.8295C51.5506 60.5005 51.4935 60.9431 51.3935 61.2929C51.3078 61.5642 51.1435 61.9996 51.015 62.2495C50.8722 62.5279 50.6222 62.8491 50.3722 63.0847C50.1437 63.2989 49.9294 63.4702 49.8866 63.4702C49.8437 63.4702 49.5938 63.0918 49.3224 62.635C49.0438 62.171 48.651 61.4214 48.4368 60.9717C48.2225 60.5219 47.9369 59.8438 47.8154 59.4726C47.6226 58.9229 47.5798 58.6516 47.5512 58.0091C47.5226 57.3595 47.5369 57.1668 47.644 56.9027C47.7155 56.7242 47.8583 56.4886 47.9583 56.3744ZM45.3658 66.6112C45.4586 66.397 45.6086 66.1115 45.6943 65.983C45.78 65.8616 45.8657 65.7545 45.88 65.7545C45.9014 65.7545 46.2228 66.2257 46.587 66.8039C46.9584 67.3893 47.5012 68.1959 47.8012 68.61C48.1011 69.024 48.651 69.745 49.0224 70.2162C49.4009 70.6802 50.058 71.4369 50.4936 71.8795C50.9293 72.3292 51.5364 72.9074 51.8506 73.1644L52.0655 73.3401C52.294 73.5267 52.4852 73.6829 52.5291 73.7212C52.6219 73.7997 52.5933 73.8283 52.3505 73.9282C52.1934 73.9925 51.8077 74.1067 51.4935 74.1852C51.1078 74.278 50.665 74.3209 50.1365 74.3209C49.5723 74.3209 49.1867 74.278 48.7796 74.1781C48.4654 74.0924 47.9868 73.9068 47.7083 73.764C47.4369 73.6213 46.987 73.2929 46.7227 73.0359C46.4514 72.7789 46.0871 72.3506 45.9157 72.0722C45.7443 71.7938 45.5229 71.3298 45.4158 71.0371C45.3158 70.7444 45.1872 70.2661 45.1301 69.9806C45.073 69.7022 45.0301 69.1025 45.0301 68.6599C45.0301 68.2245 45.0658 67.6677 45.1087 67.4321C45.1515 67.1965 45.2658 66.8253 45.3658 66.6112Z" fill="black"/>
<path d="M30.8036 88.4897C30.3223 88.4897 29.9089 88.3934 29.5632 88.2009C29.2219 88.004 28.9594 87.7284 28.7756 87.374C28.5919 87.0152 28.5 86.5929 28.5 86.1073C28.5 85.6216 28.5919 85.2016 28.7756 84.8472C28.9594 84.4928 29.2219 84.2193 29.5632 84.0268C29.9089 83.8299 30.3223 83.7314 30.8036 83.7314C31.1274 83.7314 31.4184 83.7774 31.6765 83.8693C31.9391 83.9612 32.1644 84.0968 32.3525 84.2762L32.0769 84.9456C31.8712 84.7794 31.6722 84.6612 31.4796 84.5912C31.2915 84.5168 31.0749 84.4796 30.8299 84.4796C30.3617 84.4796 30.0029 84.6218 29.7535 84.9062C29.5085 85.1863 29.386 85.5866 29.386 86.1073C29.386 86.628 29.5085 87.0305 29.7535 87.3149C30.0029 87.5993 30.3617 87.7415 30.8299 87.7415C31.0749 87.7415 31.2915 87.7065 31.4796 87.6365C31.6722 87.5621 31.8712 87.4396 32.0769 87.2689L32.3525 87.9384C32.1644 88.1134 31.9391 88.249 31.6765 88.3453C31.4184 88.4416 31.1274 88.4897 30.8036 88.4897Z" fill="black"/>
<path d="M33.0424 86.1073C33.0424 85.6216 33.1299 85.2016 33.3049 84.8472C33.4843 84.4928 33.7402 84.2193 34.0728 84.0268C34.4053 83.8299 34.8013 83.7314 35.2607 83.7314C35.7157 83.7314 36.1095 83.8299 36.442 84.0268C36.7746 84.2193 37.0305 84.4928 37.2099 84.8472C37.3937 85.2016 37.4856 85.6194 37.4856 86.1007C37.4856 86.5864 37.3937 87.0086 37.2099 87.3674C37.0305 87.7218 36.7746 87.9974 36.442 88.1943C36.1095 88.3912 35.7157 88.4897 35.2607 88.4897C34.8013 88.4897 34.4053 88.3912 34.0728 88.1943C33.7446 87.9974 33.4908 87.7218 33.3115 87.3674C33.1321 87.0086 33.0424 86.5886 33.0424 86.1073ZM33.9284 86.1073C33.9284 86.628 34.04 87.0349 34.2631 87.328C34.4862 87.6212 34.8188 87.7677 35.2607 87.7677C35.6895 87.7677 36.0198 87.6212 36.2517 87.328C36.4836 87.0349 36.5996 86.628 36.5996 86.1073C36.5996 85.5822 36.4836 85.1753 36.2517 84.8865C36.0242 84.5978 35.6939 84.4534 35.2607 84.4534C34.8188 84.4534 34.4862 84.5978 34.2631 84.8865C34.04 85.1753 33.9284 85.5822 33.9284 86.1073Z" fill="black"/>
<path d="M38.5561 88.424V83.7971H39.1927L41.877 87.2689H41.7064V83.7971H42.4939V88.424H41.8573L39.1796 84.9522H39.3436V88.424H38.5561Z" fill="black"/>
<path d="M45.3218 88.4897C44.9499 88.4897 44.6065 88.4437 44.2914 88.3519C43.9808 88.2556 43.7139 88.1243 43.4907 87.9581L43.7533 87.2952C43.902 87.4002 44.0574 87.4899 44.2192 87.5643C44.3811 87.6343 44.554 87.689 44.7377 87.7284C44.9215 87.7634 45.1162 87.7809 45.3218 87.7809C45.6675 87.7809 45.9169 87.724 46.07 87.6102C46.2232 87.4965 46.2997 87.3477 46.2997 87.1639C46.2997 87.002 46.2472 86.8795 46.1422 86.7964C46.0372 86.7089 45.8491 86.6367 45.5778 86.5798L44.8362 86.4289C44.4118 86.3414 44.0945 86.1948 43.8845 85.9891C43.6745 85.7835 43.5695 85.5079 43.5695 85.1622C43.5695 84.8734 43.6461 84.6218 43.7992 84.4074C43.9523 84.193 44.1667 84.0268 44.4424 83.9086C44.718 83.7905 45.0396 83.7314 45.4072 83.7314C45.7353 83.7314 46.0394 83.7796 46.3194 83.8758C46.5995 83.9677 46.8335 84.1012 47.0217 84.2762L46.7592 84.9062C46.571 84.7487 46.3654 84.6328 46.1422 84.5584C45.9191 84.4796 45.6697 84.4403 45.394 84.4403C45.0834 84.4403 44.8406 84.5015 44.6655 84.624C44.4949 84.7422 44.4096 84.9062 44.4096 85.1163C44.4096 85.2781 44.4621 85.4072 44.5671 85.5035C44.6765 85.5997 44.8602 85.6741 45.1184 85.7266L45.8535 85.871C46.291 85.9585 46.6148 86.1029 46.8248 86.3042C47.0348 86.5011 47.1398 86.768 47.1398 87.1049C47.1398 87.3805 47.0654 87.6234 46.9167 87.8334C46.7679 88.039 46.5579 88.2009 46.2866 88.319C46.0153 88.4328 45.6938 88.4897 45.3218 88.4897Z" fill="black"/>
<path d="M50.0639 88.4897C49.4032 88.4897 48.911 88.3256 48.5872 87.9974C48.2678 87.6649 48.1081 87.1749 48.1081 86.5273V83.7971H48.9547V86.5208C48.9547 86.932 49.0422 87.2427 49.2172 87.4527C49.3966 87.6627 49.6788 87.7677 50.0639 87.7677C50.4314 87.7677 50.7071 87.6627 50.8908 87.4527C51.079 87.2427 51.173 86.932 51.173 86.5208V83.7971H52.0065V86.5273C52.0065 87.1749 51.8425 87.6649 51.5143 87.9974C51.1905 88.3256 50.7071 88.4897 50.0639 88.4897Z" fill="black"/>
<path d="M53.1894 88.424V83.7971H54.0361V87.7087H56.215V88.424H53.1894Z" fill="black"/>
<path d="M57.2959 88.424V84.4928H55.7667V83.7971H59.6717V84.4928H58.1425V88.424H57.2959Z" fill="black"/>
<path d="M60.4668 88.424V83.7971H61.3134V88.424H60.4668Z" fill="black"/>
<path d="M62.5288 88.424V83.7971H63.1654L65.8497 87.2689H65.679V83.7971H66.4666V88.424H65.83L63.1523 84.9522H63.3163V88.424H62.5288Z" fill="black"/>
<path d="M69.9115 88.4897C69.3908 88.4897 68.9532 88.3934 68.5988 88.2009C68.2444 88.0084 67.9775 87.7349 67.7981 87.3805C67.6188 87.0261 67.5291 86.6061 67.5291 86.1204C67.5291 85.6304 67.6253 85.2081 67.8178 84.8537C68.0103 84.495 68.286 84.2193 68.6448 84.0268C69.0079 83.8299 69.4433 83.7314 69.9508 83.7314C70.2877 83.7314 70.5831 83.7774 70.8368 83.8693C71.0906 83.9568 71.3138 84.0859 71.5063 84.2565L71.2241 84.9128C71.0841 84.8034 70.9506 84.7159 70.8237 84.6503C70.6968 84.5846 70.5656 84.5387 70.4299 84.5125C70.2943 84.4818 70.1368 84.4665 69.9574 84.4665C69.4499 84.4665 69.0648 84.6109 68.8023 84.8997C68.5441 85.1841 68.4151 85.5932 68.4151 86.127C68.4151 86.6608 68.5376 87.0677 68.7826 87.3477C69.032 87.6277 69.4214 87.7677 69.9508 87.7677C70.1302 87.7677 70.3096 87.7502 70.489 87.7152C70.6728 87.6802 70.8522 87.6299 71.0272 87.5643L70.8697 87.9187V86.5339H69.7868V85.917H71.5719V88.1418C71.3575 88.2512 71.1016 88.3365 70.804 88.3978C70.5065 88.4591 70.209 88.4897 69.9115 88.4897Z" fill="black"/>
<path d="M65.5239 4.96366C65.6736 4.503 66.3253 4.503 66.4749 4.96366L67.2342 7.30047C67.3012 7.50648 67.4931 7.64596 67.7097 7.64596H70.1668C70.6512 7.64596 70.8526 8.26577 70.4607 8.55047L68.4729 9.99469C68.2977 10.122 68.2243 10.3477 68.2913 10.5537L69.0505 12.8905C69.2002 13.3512 68.673 13.7342 68.2811 13.4495L66.2933 12.0053C66.1181 11.878 65.8808 11.878 65.7055 12.0053L63.7177 13.4495C63.3259 13.7342 62.7986 13.3512 62.9483 12.8905L63.7076 10.5537C63.7745 10.3477 63.7012 10.122 63.5259 9.9947L61.5381 8.55047C61.1463 8.26577 61.3477 7.64596 61.832 7.64596H64.2891C64.5057 7.64596 64.6977 7.50648 64.7646 7.30047L65.5239 4.96366Z" fill="black"/>
<path d="M77.5239 4.96366C77.6736 4.503 78.3253 4.503 78.4749 4.96366L79.2342 7.30047C79.3012 7.50648 79.4931 7.64596 79.7097 7.64596H82.1668C82.6512 7.64596 82.8526 8.26577 82.4607 8.55047L80.4729 9.99469C80.2977 10.122 80.2243 10.3477 80.2913 10.5537L81.0505 12.8905C81.2002 13.3512 80.673 13.7342 80.2811 13.4495L78.2933 12.0053C78.1181 11.878 77.8808 11.878 77.7055 12.0053L75.7177 13.4495C75.3259 13.7342 74.7986 13.3512 74.9483 12.8905L75.7076 10.5537C75.7745 10.3477 75.7012 10.122 75.5259 9.9947L73.5381 8.55047C73.1463 8.26577 73.3477 7.64596 73.832 7.64596H76.2891C76.5057 7.64596 76.6977 7.50648 76.7646 7.30047L77.5239 4.96366Z" fill="black"/>
<path d="M89.9265 4.86312C90.0819 4.41477 90.716 4.41477 90.8714 4.86312L91.7193 7.30956C91.789 7.51085 91.9787 7.64583 92.1917 7.64583H94.8633C95.3555 7.64583 95.5516 8.28203 95.1448 8.55908L93.0401 9.99267C92.8535 10.1198 92.7752 10.3563 92.8491 10.5697L93.666 12.9264C93.8237 13.3815 93.3101 13.7745 92.9121 13.5034L90.6804 11.9834C90.5106 11.8677 90.2873 11.8677 90.1175 11.9834L87.8858 13.5034C87.4878 13.7745 86.9742 13.3815 87.1319 12.9264L87.9487 10.5697C88.0227 10.3563 87.9444 10.1198 87.7578 9.99267L85.653 8.55908C85.2463 8.28203 85.4424 7.64583 85.9345 7.64583H88.6062C88.8192 7.64583 89.0089 7.51085 89.0786 7.30957L89.9265 4.86312Z" fill="black"/>
<path d="M102.324 4.96366C102.473 4.503 103.125 4.503 103.275 4.96366L104.034 7.30047C104.101 7.50648 104.293 7.64596 104.51 7.64596H106.967C107.451 7.64596 107.652 8.26577 107.261 8.55047L105.273 9.99469C105.097 10.122 105.024 10.3477 105.091 10.5537L105.85 12.8905C106 13.3512 105.473 13.7342 105.081 13.4495L103.093 12.0053C102.918 11.878 102.681 11.878 102.505 12.0053L100.518 13.4495C100.126 13.7342 99.5984 13.3512 99.7481 12.8905L100.507 10.5537C100.574 10.3477 100.501 10.122 100.326 9.9947L98.3379 8.55047C97.9461 8.26577 98.1475 7.64596 98.6318 7.64596H101.089C101.305 7.64596 101.497 7.50648 101.564 7.30047L102.324 4.96366Z" fill="black"/>
<path d="M114.324 4.96366C114.473 4.503 115.125 4.503 115.275 4.96366L116.034 7.30047C116.101 7.50648 116.293 7.64596 116.51 7.64596H118.967C119.451 7.64596 119.652 8.26577 119.261 8.55047L117.273 9.99469C117.097 10.122 117.024 10.3477 117.091 10.5537L117.85 12.8905C118 13.3512 117.473 13.7342 117.081 13.4495L115.093 12.0053C114.918 11.878 114.681 11.878 114.505 12.0053L112.518 13.4495C112.126 13.7342 111.598 13.3512 111.748 12.8905L112.507 10.5537C112.574 10.3477 112.501 10.122 112.326 9.9947L110.338 8.55047C109.946 8.26577 110.147 7.64596 110.632 7.64596H113.089C113.305 7.64596 113.497 7.50648 113.564 7.30047L114.324 4.96366Z" fill="black"/>
<path d="M100 25.5H148V27.5H100V25.5Z" fill="black"/>
<path d="M100 31.5H123V33.5H100V31.5Z" fill="black"/>
</svg>
