<svg width="542" height="574" viewBox="0 0 542 574" fill="none" xmlns="http://www.w3.org/2000/svg">
<path d="M185.587 233.22L87.3303 271.813L113.373 342.514L214.6 305.032L185.587 233.22Z" fill="#F6F6F6" stroke="black" stroke-width="1.5"/>
<path d="M116.33 330.074L125.403 301.296L153.07 313.34L165.841 265.625L180.139 272.668L199.525 134.376M199.525 134.376L208.074 147.735M199.525 134.376L186.167 142.925M232.466 130.534L243.772 109.364M163.987 150.634L142.818 139.328" stroke="black" stroke-width="1.5"/>
<path d="M227.404 149.179L354.49 100.832L362.721 122.961M173.84 169.557L42.5533 219.502L50.8864 241.585M50.8864 241.585L119.932 424.553L431.313 307.369L362.721 122.961M50.8864 241.585L169.99 196.277M362.721 122.961L216.204 178.697" stroke="black" stroke-width="1.5"/>
<path d="M283.644 61.6285C289.949 53.8275 291.333 43.3388 290.857 28.7679C298.567 37.5789 307.298 45.925 319.272 47.8647C312.876 58.1717 310.654 64.1133 311.503 82.2107C308.249 75.0668 295.618 63.5682 283.644 61.6285Z" stroke="black" stroke-width="1.5"/>
<path d="M219.372 525.248C225.677 517.447 227.061 506.958 226.586 492.387C234.296 501.198 243.027 509.544 255.001 511.484C248.605 521.791 246.382 527.732 247.231 545.83C243.978 538.686 231.346 527.187 219.372 525.248Z" stroke="black" stroke-width="1.5"/>
<path d="M212.958 225.68L287.742 197.779" stroke="black" stroke-width="1.5"/>
<path d="M220.681 248.042L296.485 219.675" stroke="black" stroke-width="1.5"/>
<path d="M230.351 271.979L305.134 244.077" stroke="black" stroke-width="1.5"/>
<path d="M238.071 294.34L313.875 265.974" stroke="black" stroke-width="1.5"/>
<path d="M133.644 392.43L123.973 368.493L322.991 291.397L332.106 316.82L133.644 392.43Z" stroke="black" stroke-width="1.5"/>
<circle cx="452.567" cy="232.448" r="2.24287" transform="rotate(-24.4887 452.567 232.448)" stroke="black" stroke-width="1.5"/>
<circle cx="238.904" cy="409.796" r="4.48574" transform="rotate(-24.4887 238.904 409.796)" stroke="black" stroke-width="1.5"/>
<mask id="path-13-inside-1_201_1617" fill="white">
<path d="M336.215 240.951C313.526 223.414 309.35 190.805 326.888 168.116C344.425 145.428 377.034 141.252 399.723 158.789C422.411 176.327 426.587 208.936 409.05 231.624C391.512 254.313 358.903 258.489 336.215 240.951ZM380.413 183.771C371.521 176.898 358.742 178.535 351.87 187.426C344.997 196.318 346.633 209.097 355.525 215.969C364.416 222.842 377.195 221.206 384.068 212.314C390.941 203.423 389.304 190.644 380.413 183.771Z"/>
</mask>
<path d="M336.215 240.951C313.526 223.414 309.35 190.805 326.888 168.116C344.425 145.428 377.034 141.252 399.723 158.789C422.411 176.327 426.587 208.936 409.05 231.624C391.512 254.313 358.903 258.489 336.215 240.951ZM380.413 183.771C371.521 176.898 358.742 178.535 351.87 187.426C344.997 196.318 346.633 209.097 355.525 215.969C364.416 222.842 377.195 221.206 384.068 212.314C390.941 203.423 389.304 190.644 380.413 183.771Z" fill="white" stroke="black" stroke-width="3" mask="url(#path-13-inside-1_201_1617)"/>
<mask id="path-14-inside-2_201_1617" fill="white">
<path d="M335.723 159.174C327.881 165.388 322.001 173.735 318.791 183.212C315.581 192.688 315.177 202.891 317.628 212.591L348.252 204.853C347.292 201.053 347.45 197.057 348.707 193.345C349.964 189.634 352.267 186.364 355.339 183.931L335.723 159.174Z"/>
</mask>
<path d="M335.723 159.174C327.881 165.388 322.001 173.735 318.791 183.212C315.581 192.688 315.177 202.891 317.628 212.591L348.252 204.853C347.292 201.053 347.45 197.057 348.707 193.345C349.964 189.634 352.267 186.364 355.339 183.931L335.723 159.174Z" fill="#EBF3FF" stroke="black" stroke-width="3" mask="url(#path-14-inside-2_201_1617)"/>
<path d="M316.467 206.465C317.771 216.652 322.067 226.222 328.81 233.967C335.554 241.712 344.443 247.283 354.353 249.976C364.263 252.669 374.749 252.363 384.485 249.096C394.221 245.83 402.769 239.749 409.05 231.624L384.652 212.766C382.102 216.066 378.63 218.535 374.676 219.862C370.722 221.188 366.464 221.313 362.439 220.219C358.414 219.125 354.805 216.863 352.066 213.718C349.327 210.572 347.583 206.685 347.053 202.549L316.467 206.465Z" fill="black"/>
</svg>
