<svg width="153" height="150" viewBox="0 0 153 150" fill="none" xmlns="http://www.w3.org/2000/svg">
<circle cx="75" cy="75" r="75" fill="#EBF3FF"/>
<path d="M47.3029 88.0237L31.5689 90.9289L38.0337 131.375L81.1765 124.225C88.1279 123.072 94.6328 120.026 99.9519 115.404C107.217 109.092 115.484 101.783 117.059 99.4958C119.304 96.2339 117.964 94.0747 117.013 93.4029C117.905 92.5666 118.607 91.8901 119.037 91.4448C122.025 88.3509 125.414 84.6744 124.559 82.7985C123.875 81.2977 122.393 81.1646 121.737 81.2857L124.426 78.8143C127.505 76.212 132.096 70.7882 129.093 68.292C126.257 65.9347 120.964 69.1151 118.892 70.684C119.521 69.3002 119.711 67.7858 118.624 66.6659C116.615 64.5963 112.789 65.3588 110.083 67.226C105.724 70.2342 95.5221 77.033 87.9881 82.4917C80.454 87.9505 70.9456 92.0789 67.1331 93.4608C70.7589 89.2322 79.0271 79.672 83.0937 75.2602C88.1768 69.7456 87.5413 66.3037 85.7031 64.6094C84.2325 63.2538 80.5012 64.8919 78.8194 65.8804L47.3029 88.0237Z" fill="white"/>
<path d="M83.6996 100.571V100.571C91.8691 95.3407 99.5741 89.4183 106.73 82.869L116.854 73.6026C117.509 72.9372 118.358 71.8576 118.892 70.684M118.892 70.684C119.521 69.3002 119.711 67.7858 118.624 66.6659C116.615 64.5963 112.789 65.3588 110.083 67.226C105.724 70.2342 95.5221 77.033 87.9881 82.4917C80.454 87.9505 70.9456 92.0789 67.1331 93.4608C70.7589 89.2322 79.0271 79.672 83.0937 75.2602C88.1768 69.7456 87.5413 66.3037 85.7031 64.6094C84.2325 63.2538 80.5013 64.8919 78.8194 65.8804L47.3029 88.0237L31.5689 90.9289L38.0337 131.375L81.1765 124.225C88.1279 123.072 94.6328 120.026 99.9519 115.404C107.217 109.092 115.484 101.783 117.059 99.4958C119.304 96.2339 117.964 94.0747 117.013 93.4029M118.892 70.684C120.964 69.1151 126.257 65.9347 129.093 68.292C132.096 70.7882 127.505 76.212 124.426 78.8143L116.252 86.3274C109.25 92.763 101.784 98.6749 93.9153 104.016L87.2097 108.567M121.737 81.2857C122.393 81.1646 123.875 81.2977 124.559 82.7985C125.414 84.6744 122.025 88.3509 119.037 91.4448C118.607 91.8901 117.905 92.5666 117.013 93.4029M89.9448 115.629L100.747 108.042C104.93 104.35 112.946 97.2157 117.013 93.4029" stroke="black" stroke-width="1.5"/>
<ellipse cx="23.3963" cy="112.833" rx="11.2754" ry="33.0132" transform="rotate(-19.8476 23.3963 112.833)" fill="black"/>
<mask id="path-5-inside-1_242_3113" fill="white">
<path fill-rule="evenodd" clip-rule="evenodd" d="M8.00428 94.7182L33.9383 89.9296L41.5646 131.231L21.8678 134.868C18.5812 130.118 15.3733 123.822 12.7887 116.662C9.87585 108.592 8.27385 100.862 8.00428 94.7182Z"/>
</mask>
<path fill-rule="evenodd" clip-rule="evenodd" d="M8.00428 94.7182L33.9383 89.9296L41.5646 131.231L21.8678 134.868C18.5812 130.118 15.3733 123.822 12.7887 116.662C9.87585 108.592 8.27385 100.862 8.00428 94.7182Z" fill="#F6F6F6"/>
<path d="M8.00428 94.7182L7.73191 93.2431L6.44851 93.4801L6.50572 94.7839L8.00428 94.7182ZM33.9383 89.9296L35.4134 89.6572L35.141 88.1821L33.666 88.4545L33.9383 89.9296ZM41.5646 131.231L41.8369 132.706L43.312 132.434L43.0396 130.959L41.5646 131.231ZM21.8678 134.868L20.6342 135.722L21.1861 136.52L22.1402 136.343L21.8678 134.868ZM12.7887 116.662L14.1996 116.153L12.7887 116.662ZM8.27664 96.1932L34.2107 91.4046L33.666 88.4545L7.73191 93.2431L8.27664 96.1932ZM32.4633 90.2019L40.0895 131.504L43.0396 130.959L35.4134 89.6572L32.4633 90.2019ZM41.2922 129.756L21.5954 133.393L22.1402 136.343L41.8369 132.706L41.2922 129.756ZM23.1014 134.015C19.9006 129.388 16.748 123.213 14.1996 116.153L11.3778 117.171C13.9985 124.432 17.2619 130.847 20.6342 135.722L23.1014 134.015ZM14.1996 116.153C11.326 108.192 9.76436 100.613 9.50283 94.6524L6.50572 94.7839C6.78335 101.111 8.42571 108.993 11.3778 117.171L14.1996 116.153Z" fill="black" mask="url(#path-5-inside-1_242_3113)"/>
<path d="M73.3739 69.4287C73.7497 70.5457 75.5284 72.285 79.6373 70.306C83.7463 68.327 85.8426 66.279 86.3771 65.5023" stroke="black" stroke-width="1.5"/>
<path d="M112.483 77.4606C111.84 76.7319 111.053 74.6739 113.05 72.2713C115.047 69.8688 118.048 68.1284 119.298 67.5585M123.535 79.4875C122.862 78.5949 122.014 76.2091 124.011 73.8066C126.008 71.4041 128.741 70.052 129.858 69.6762M118.649 91.5757C118.303 90.6226 117.933 88.2504 119.216 86.3865C120.819 84.0566 124.08 82.4377 124.662 82.8386M113.18 103.263C112.731 102.668 112.332 100.877 114.329 98.4746C116.326 96.0721 117.87 95.6177 118.392 95.6908" stroke="black" stroke-width="1.5"/>
<path d="M10 71.3768C24.5016 73.2464 59.0981 72 81.472 52.0584C109.439 27.1313 104.467 19.0299 101.981 15.914C99.5259 12.8363 88.3084 12.1751 81.472 24.0154C78.986 20.0686 72.2738 12.9228 65.3131 15.9141C56.6121 19.6532 62.8271 37.7254 81.472 46.4498C100.117 55.1743 124.977 43.334 143 28.3777" stroke="black" stroke-width="1.5"/>
<path d="M116.671 117.206C121.227 117.206 126.69 115.904 130.714 110.192C134.112 105.369 134.706 100.708 134.665 96.9081C134.645 96.1873 134.627 95.5138 134.592 94.9023C134.629 95.5388 134.658 96.2089 134.665 96.9081C134.779 101.015 134.969 106.655 138.93 111.087C143.585 116.296 148.139 117.402 151.53 117.206C148.818 117.363 143.648 117.388 139.561 122.007C135.475 126.627 134.396 134.633 134.367 138.058C134.185 130.993 131.581 117.206 116.671 117.206Z" fill="#EBF3FF" stroke="black" stroke-width="1.5"/>
<path d="M3.17063 40.7285C5.86567 40.7285 9.0977 39.958 11.4781 36.5793C13.8586 33.2006 13.9124 29.9565 13.7723 27.5338C13.9124 29.9565 13.5844 34.0267 16.3385 37.1084C19.0926 40.1901 21.7868 40.8445 23.7924 40.7285C22.1879 40.8213 19.1299 40.8361 16.7121 43.5688C14.2943 46.3014 13.656 51.0378 13.6391 53.0644C13.5314 48.8844 11.9907 40.7285 3.17063 40.7285Z" stroke="black" stroke-width="1.5"/>
</svg>
