<svg width="380" height="200" viewBox="0 0 380 200" fill="none" xmlns="http://www.w3.org/2000/svg">
<path fill-rule="evenodd" clip-rule="evenodd" d="M114 20C105.716 20 99 26.7157 99 35V89.7919C99 98.0762 105.716 104.792 114 104.792H125.822L117.477 124.544L150.394 104.792H195.838C204.123 104.792 210.838 98.0762 210.838 89.7919V35C210.838 26.7157 204.123 20 195.838 20H114Z" fill="white"/>
<path d="M125.822 104.792L126.513 105.084L126.953 104.042H125.822V104.792ZM117.477 124.544L116.786 124.252L115.891 126.371L117.862 125.187L117.477 124.544ZM150.394 104.792V104.042H150.187L150.008 104.149L150.394 104.792ZM99.75 35C99.75 27.1299 106.13 20.75 114 20.75V19.25C105.302 19.25 98.25 26.3015 98.25 35H99.75ZM99.75 89.7919V35H98.25V89.7919H99.75ZM114 104.042C106.13 104.042 99.75 97.662 99.75 89.7919H98.25C98.25 98.4904 105.302 105.542 114 105.542V104.042ZM125.822 104.042H114V105.542H125.822V104.042ZM118.167 124.836L126.513 105.084L125.131 104.5L116.786 124.252L118.167 124.836ZM150.008 104.149L117.091 123.901L117.862 125.187L150.78 105.435L150.008 104.149ZM195.838 104.042H150.394V105.542H195.838V104.042ZM210.088 89.7919C210.088 97.662 203.708 104.042 195.838 104.042V105.542C204.537 105.542 211.588 98.4904 211.588 89.7919H210.088ZM210.088 35V89.7919H211.588V35H210.088ZM195.838 20.75C203.708 20.75 210.088 27.1299 210.088 35H211.588C211.588 26.3015 204.537 19.25 195.838 19.25V20.75ZM114 20.75H195.838V19.25H114V20.75Z" fill="black"/>
<path d="M131.579 67.6513C127.145 76.9229 124.285 79.3214 124.285 87.1015H188.957C189.443 81.2664 187.498 75.9176 182.636 70.5688C177.773 65.2201 181.177 56.9537 176.801 42.3661C172.424 27.7785 146.653 27.7785 139.845 38.4761C133.038 49.1737 136.928 56.4675 131.579 67.6513Z" fill="black"/>
<path d="M152.001 42.3672C150.056 46.2572 144.869 49.8231 142.762 51.1198V59.0619C142.762 62.4287 143.854 65.7046 145.874 68.398L147.138 70.0837V76.8912H165.616V70.0837L166.872 68.5764C169.202 65.78 170.478 62.2552 170.478 58.6151V51.1198C158.03 49.5637 152.973 44.6364 152.001 42.3672Z" fill="white" stroke="black" stroke-width="1.5"/>
<path fill-rule="evenodd" clip-rule="evenodd" d="M198.198 104.606C198.198 94.6274 191.35 85.9527 181.645 83.6349L165.619 79.8079V74.9453H147.141V79.8079L130.169 83.7435C120.462 85.9944 113.59 94.6424 113.59 104.607V104.784C113.727 104.788 113.865 104.79 114.004 104.79H125.826L117.48 124.542L150.398 104.79H195.842C196.644 104.79 197.431 104.727 198.198 104.606Z" fill="#EBF3FF"/>
<path d="M198.198 104.606L198.315 105.347L198.948 105.247L198.948 104.606L198.198 104.606ZM181.645 83.6349L181.819 82.9054L181.645 83.6349ZM165.619 79.8079H164.869V80.3998L165.445 80.5373L165.619 79.8079ZM165.619 74.9453H166.369V74.1953H165.619V74.9453ZM147.141 74.9453V74.1953H146.391V74.9453H147.141ZM147.141 79.8079L147.311 80.5385L147.891 80.4038V79.8079H147.141ZM130.169 83.7435L129.999 83.0129L130.169 83.7435ZM113.59 104.784H112.84V105.514L113.57 105.534L113.59 104.784ZM125.826 104.79L126.517 105.082L126.957 104.04H125.826V104.79ZM117.48 124.542L116.79 124.25L115.895 126.369L117.866 125.185L117.48 124.542ZM150.398 104.79V104.04H150.191L150.012 104.147L150.398 104.79ZM198.948 104.606C198.948 94.2803 191.862 85.3038 181.819 82.9054L181.47 84.3643C190.839 86.6015 197.448 94.9746 197.448 104.606L198.948 104.606ZM181.819 82.9054L165.793 79.0784L165.445 80.5373L181.47 84.3643L181.819 82.9054ZM166.369 79.8079V74.9453H164.869V79.8079H166.369ZM165.619 74.1953H147.141V75.6953H165.619V74.1953ZM146.391 74.9453V79.8079H147.891V74.9453H146.391ZM146.972 79.0772L129.999 83.0129L130.338 84.4741L147.311 80.5385L146.972 79.0772ZM129.999 83.0129C119.953 85.3426 112.84 94.2934 112.84 104.607H114.34C114.34 94.9913 120.971 86.6462 130.338 84.4741L129.999 83.0129ZM112.84 104.607V104.784H114.34V104.607H112.84ZM113.57 105.534C113.714 105.538 113.859 105.54 114.004 105.54V104.04C113.872 104.04 113.741 104.038 113.61 104.035L113.57 105.534ZM114.004 105.54H125.826V104.04H114.004V105.54ZM125.135 104.498L116.79 124.25L118.171 124.834L126.517 105.082L125.135 104.498ZM117.866 125.185L150.784 105.433L150.012 104.147L117.095 123.899L117.866 125.185ZM150.398 105.54H195.842V104.04H150.398V105.54ZM195.842 105.54C196.683 105.54 197.509 105.474 198.315 105.347L198.081 103.865C197.352 103.98 196.605 104.04 195.842 104.04V105.54Z" fill="black"/>
<path fill-rule="evenodd" clip-rule="evenodd" d="M212.865 122.113C208.524 122.113 205.004 125.633 205.004 129.975V162.309C205.004 166.65 208.524 170.17 212.865 170.17H245.213L261.249 179.999L259.18 170.17H268.135C272.477 170.17 275.997 166.65 275.997 162.309V129.975C275.997 125.633 272.477 122.113 268.135 122.113H212.865Z" fill="black"/>
<path d="M245.213 170.17L245.605 169.531L245.424 169.42H245.213V170.17ZM261.249 179.999L260.858 180.638L262.342 181.548L261.983 179.844L261.249 179.999ZM259.18 170.17V169.42H258.256L258.446 170.325L259.18 170.17ZM205.754 129.975C205.754 126.047 208.938 122.863 212.865 122.863V121.363C208.109 121.363 204.254 125.219 204.254 129.975H205.754ZM205.754 162.309V129.975H204.254V162.309H205.754ZM212.865 169.42C208.938 169.42 205.754 166.236 205.754 162.309H204.254C204.254 167.065 208.109 170.92 212.865 170.92V169.42ZM245.213 169.42H212.865V170.92H245.213V169.42ZM261.641 179.36L245.605 169.531L244.821 170.81L260.858 180.638L261.641 179.36ZM258.446 170.325L260.516 180.153L261.983 179.844L259.914 170.016L258.446 170.325ZM268.135 169.42H259.18V170.92H268.135V169.42ZM275.247 162.309C275.247 166.236 272.063 169.42 268.135 169.42V170.92C272.891 170.92 276.747 167.065 276.747 162.309H275.247ZM275.247 129.975V162.309H276.747V129.975H275.247ZM268.135 122.863C272.063 122.863 275.247 126.047 275.247 129.975H276.747C276.747 125.219 272.891 121.363 268.135 121.363V122.863ZM212.865 122.863H268.135V121.363H212.865V122.863Z" fill="black"/>
<path fill-rule="evenodd" clip-rule="evenodd" d="M212.865 122.113C208.524 122.113 205.004 125.633 205.004 129.975V160.124C205.004 164.466 208.524 167.986 212.865 167.986H241.938L257.976 177.815L255.907 167.986H265.951C270.293 167.986 273.813 164.466 273.813 160.124V129.975C273.813 125.633 270.293 122.113 265.951 122.113H212.865Z" fill="#F6F6F6"/>
<path d="M241.938 167.986L242.33 167.346L242.15 167.236H241.938V167.986ZM257.976 177.815L257.584 178.455L259.069 179.365L258.71 177.661L257.976 177.815ZM255.907 167.986V167.236H254.982L255.173 168.14L255.907 167.986ZM205.754 129.975C205.754 126.047 208.938 122.863 212.865 122.863V121.363C208.109 121.363 204.254 125.219 204.254 129.975H205.754ZM205.754 160.124V129.975H204.254V160.124H205.754ZM212.865 167.236C208.938 167.236 205.754 164.052 205.754 160.124H204.254C204.254 164.88 208.109 168.736 212.865 168.736V167.236ZM241.938 167.236H212.865V168.736H241.938V167.236ZM258.368 177.176L242.33 167.346L241.546 168.625L257.584 178.455L258.368 177.176ZM255.173 168.14L257.242 177.97L258.71 177.661L256.641 167.831L255.173 168.14ZM265.951 167.236H255.907V168.736H265.951V167.236ZM273.063 160.124C273.063 164.052 269.879 167.236 265.951 167.236V168.736C270.707 168.736 274.563 164.88 274.563 160.124H273.063ZM273.063 129.975V160.124H274.563V129.975H273.063ZM265.951 122.863C269.879 122.863 273.063 126.047 273.063 129.975H274.563C274.563 125.219 270.707 121.363 265.951 121.363V122.863ZM212.865 122.863H265.951V121.363H212.865V122.863Z" fill="black"/>
<path d="M217.562 137.951H261.797" stroke="black" stroke-width="1.5"/>
<path d="M217.562 150.51H261.797" stroke="black" stroke-width="1.5"/>
<path d="M210.35 61.8184H211.773C222.267 61.8184 230.773 70.325 230.773 80.8184V93.875C230.773 104.368 222.267 112.875 211.773 112.875H193.575C184.578 112.875 177.285 120.168 177.285 129.165V129.165C177.285 138.161 184.578 145.454 193.575 145.454H205.002" stroke="black" stroke-width="1.5"/>
<path d="M238.068 59.7523C243.417 59.7523 249.832 58.223 254.556 51.5173C259.281 44.8117 259.387 38.3732 259.109 33.565C259.387 38.3732 258.736 46.4513 264.202 52.5675C269.668 58.6837 275.016 59.9825 278.996 59.7523C275.812 59.9365 269.743 59.9659 264.944 65.3893C260.145 70.8128 258.879 80.213 258.845 84.2352C258.631 75.9391 255.574 59.7523 238.068 59.7523Z" stroke="black" stroke-width="1.5"/>
<path d="M163.774 151.121C160.858 151.121 157.36 150.288 154.785 146.632C152.209 142.976 152.15 139.465 152.302 136.844C152.15 139.465 152.505 143.87 149.525 147.204C146.545 150.539 143.63 151.247 141.46 151.121C143.196 151.222 146.505 151.238 149.121 154.195C151.737 157.152 152.428 162.277 152.446 164.47C152.563 159.946 154.23 151.121 163.774 151.121Z" stroke="black" stroke-width="1.5"/>
</svg>
