<svg width="582" height="84" viewBox="0 0 582 84" fill="none" xmlns="http://www.w3.org/2000/svg">
<path d="M4.71321 1.2759C64.6118 -1.93933 98.9938 43.1744 103.79 40.8112C111.556 36.0893 131.932 6.85882 136.776 26.5213C154.474 98.3601 225.607 56.2292 275.436 40.8112" stroke="black" stroke-width="1.5"/>
<path d="M576.667 80.3464C537.671 91.0076 529.829 58.8062 524.985 39.1437C520.141 19.4813 499.765 48.7118 491.999 53.4337C487.203 55.7969 445.01 2.61984 354.388 21.0776" stroke="black" stroke-width="1.5"/>
<path d="M346.74 67.1204C343.845 65.6415 342.136 62.9083 340.498 58.8595C339.205 62.0872 337.54 65.2944 334.093 67.084C337.323 69.2411 338.734 70.6383 340.688 75.6942C340.815 73.392 343.293 68.91 346.74 67.1204Z" stroke="black" stroke-width="1.5"/>
<path d="M325.485 45.9231C317.688 41.3632 313.191 33.0023 308.969 20.6333C305.258 30.4464 300.537 40.1905 291.046 45.5817C299.715 52.2146 303.476 56.4985 308.502 71.9425C308.981 64.9284 315.994 51.3143 325.485 45.9231Z" stroke="black" stroke-width="1.5"/>
</svg>
