<svg width="1142" height="165" viewBox="0 0 1142 165" fill="none" xmlns="http://www.w3.org/2000/svg">
<path d="M1132.19 2.50581C1014.53 -3.80982 946.992 84.8064 937.571 80.1645C922.317 70.8893 882.292 13.4723 872.777 52.0949C838.013 193.207 698.287 110.45 600.408 80.1645" stroke="black" stroke-width="1.5"/>
<path d="M8.7056 157.823C85.3039 178.765 100.708 115.512 110.223 76.8895C119.738 38.2668 159.763 95.6838 175.017 104.959C184.438 109.601 267.318 5.14611 445.325 41.4025" stroke="black" stroke-width="1.5"/>
<path d="M484.206 78.9946C487.468 77.3283 489.394 74.2488 491.239 69.687C492.696 73.3236 494.572 76.9372 498.455 78.9536C494.817 81.384 493.227 82.9583 491.025 88.6548C490.882 86.0608 488.089 81.011 484.206 78.9946Z" stroke="black" stroke-width="1.5"/>
<path d="M508.154 55.1116C516.939 49.9739 522.005 40.5536 526.762 26.6173C530.944 37.6739 536.263 48.6526 546.956 54.7269C537.189 62.2003 532.951 67.027 527.289 84.4279C526.748 76.5251 518.847 61.1859 508.154 55.1116Z" stroke="black" stroke-width="1.5"/>
</svg>
