<svg width="2242" height="333" viewBox="0 0 2242 333" fill="none" xmlns="http://www.w3.org/2000/svg">
<path d="M2220.88 4.54573C1969.36 -6.91219 1824.98 153.857 1804.85 145.435C1772.24 128.608 1686.68 24.4412 1666.34 94.511C1641.8 179.045 1550.63 239.333 1435.62 248.346" stroke="black" stroke-width="1.5"/>
<path d="M4.13596 181.52C23.0364 122.473 99.6297 209.645 128.987 223.628C147.134 230.606 313.414 69.8809 656.957 123.21C791.243 144.569 902.055 169.586 1164.97 238.049" stroke="black" stroke-width="1.5"/>
<path d="M1256.72 275.206C1260.85 273.095 1263.29 269.195 1265.62 263.416C1267.46 268.023 1269.84 272.6 1274.75 275.154C1270.15 278.233 1268.13 280.227 1265.35 287.442C1265.17 284.157 1261.64 277.76 1256.72 275.206Z" stroke="black" stroke-width="1.5"/>
<path d="M1287.02 244.956C1298.13 238.448 1304.54 226.516 1310.55 208.863C1315.84 222.868 1322.57 236.775 1336.1 244.469C1323.74 253.935 1318.38 260.049 1311.22 282.09C1310.54 272.08 1300.54 252.65 1287.02 244.956Z" stroke="black" stroke-width="1.5"/>
</svg>
