<svg width="240" height="80" viewBox="0 0 240 80" fill="none" xmlns="http://www.w3.org/2000/svg">
<rect width="240" height="80" rx="40" fill="#A0A8B5"/>
<path d="M90.1406 50.5469H71.8594C69.2705 50.5469 67.1719 48.4482 67.1719 45.8594V34.1406C67.1719 31.5518 69.2705 29.4531 71.8594 29.4531H90.1406C92.7295 29.4531 94.8281 31.5518 94.8281 34.1406V45.8594C94.8281 48.4482 92.7295 50.5469 90.1406 50.5469Z" stroke="white" stroke-width="1.5" stroke-miterlimit="10" stroke-linecap="round" stroke-linejoin="round"/>
<path d="M71.8594 34.1406L79.3427 41.8584C80.258 42.7737 81.742 42.7737 82.6573 41.8584L90.1406 34.1406" stroke="white" stroke-width="1.5" stroke-miterlimit="10" stroke-linecap="round" stroke-linejoin="round"/>
<path d="M71.8594 45.8594L77.4844 40" stroke="white" stroke-width="1.5" stroke-miterlimit="10" stroke-linecap="round" stroke-linejoin="round"/>
<path d="M84.5156 40L90.1406 45.8594" stroke="white" stroke-width="1.5" stroke-miterlimit="10" stroke-linecap="round" stroke-linejoin="round"/>
<path d="M109.956 47V31.49H119.988V33.162H111.936V38.288H119.482V39.96H111.936V45.328H119.988V47H109.956ZM122.582 41.786V40.158H128.94V41.786H122.582ZM132.166 47V38.552C132.166 38.1267 132.151 37.694 132.122 37.254C132.093 36.814 132.049 36.374 131.99 35.934H133.926L134.146 38.31H133.882C134.175 37.4887 134.645 36.858 135.29 36.418C135.935 35.9633 136.705 35.736 137.6 35.736C138.509 35.736 139.257 35.956 139.844 36.396C140.431 36.8213 140.827 37.496 141.032 38.42H140.702C140.981 37.5987 141.472 36.946 142.176 36.462C142.88 35.978 143.701 35.736 144.64 35.736C145.857 35.736 146.774 36.0953 147.39 36.814C148.006 37.518 148.314 38.618 148.314 40.114V47H146.312V40.224C146.312 39.212 146.136 38.486 145.784 38.046C145.432 37.5913 144.875 37.364 144.112 37.364C143.217 37.364 142.513 37.672 142 38.288C141.487 38.8893 141.23 39.7107 141.23 40.752V47H139.228V40.224C139.228 39.212 139.052 38.486 138.7 38.046C138.363 37.5913 137.805 37.364 137.028 37.364C136.133 37.364 135.429 37.672 134.916 38.288C134.417 38.8893 134.168 39.7107 134.168 40.752V47H132.166ZM155.812 47.198C154.844 47.198 153.993 46.9707 153.26 46.516C152.527 46.0613 151.955 45.4013 151.544 44.536C151.133 43.6707 150.928 42.644 150.928 41.456C150.928 40.268 151.133 39.2487 151.544 38.398C151.955 37.5327 152.527 36.8727 153.26 36.418C153.993 35.9633 154.844 35.736 155.812 35.736C156.795 35.736 157.645 35.9853 158.364 36.484C159.097 36.968 159.581 37.6353 159.816 38.486H159.552L159.794 35.934H161.73C161.686 36.374 161.642 36.814 161.598 37.254C161.569 37.694 161.554 38.1267 161.554 38.552V47H159.552V44.47H159.794C159.559 45.306 159.075 45.9733 158.342 46.472C157.623 46.956 156.78 47.198 155.812 47.198ZM156.274 45.614C157.271 45.614 158.071 45.262 158.672 44.558C159.273 43.854 159.574 42.82 159.574 41.456C159.574 40.092 159.273 39.0653 158.672 38.376C158.071 37.6867 157.271 37.342 156.274 37.342C155.277 37.342 154.47 37.6867 153.854 38.376C153.253 39.0653 152.952 40.092 152.952 41.456C152.952 42.82 153.253 43.854 153.854 44.558C154.455 45.262 155.262 45.614 156.274 45.614ZM164.908 47V35.934H166.91V47H164.908ZM164.732 33.514V31.358H167.108V33.514H164.732ZM170.258 47V30.808H172.26V47H170.258Z" fill="white"/>
</svg>
