<svg width="240" height="64" viewBox="0 0 240 64" fill="none" xmlns="http://www.w3.org/2000/svg">
<rect width="240" height="64" rx="32" fill="#A0A8B5"/>
<path d="M90.1406 42.5469H71.8594C69.2705 42.5469 67.1719 40.4482 67.1719 37.8594V26.1406C67.1719 23.5518 69.2705 21.4531 71.8594 21.4531H90.1406C92.7295 21.4531 94.8281 23.5518 94.8281 26.1406V37.8594C94.8281 40.4482 92.7295 42.5469 90.1406 42.5469Z" stroke="white" stroke-width="1.5" stroke-miterlimit="10" stroke-linecap="round" stroke-linejoin="round"/>
<path d="M71.8594 26.1406L79.3427 33.8584C80.258 34.7737 81.742 34.7737 82.6573 33.8584L90.1406 26.1406" stroke="white" stroke-width="1.5" stroke-miterlimit="10" stroke-linecap="round" stroke-linejoin="round"/>
<path d="M71.8594 37.8594L77.4844 32" stroke="white" stroke-width="1.5" stroke-miterlimit="10" stroke-linecap="round" stroke-linejoin="round"/>
<path d="M84.5156 32L90.1406 37.8594" stroke="white" stroke-width="1.5" stroke-miterlimit="10" stroke-linecap="round" stroke-linejoin="round"/>
<path d="M109.956 39V23.49H119.988V25.162H111.936V30.288H119.482V31.96H111.936V37.328H119.988V39H109.956ZM122.582 33.786V32.158H128.94V33.786H122.582ZM132.166 39V30.552C132.166 30.1267 132.151 29.694 132.122 29.254C132.093 28.814 132.049 28.374 131.99 27.934H133.926L134.146 30.31H133.882C134.175 29.4887 134.645 28.858 135.29 28.418C135.935 27.9633 136.705 27.736 137.6 27.736C138.509 27.736 139.257 27.956 139.844 28.396C140.431 28.8213 140.827 29.496 141.032 30.42H140.702C140.981 29.5987 141.472 28.946 142.176 28.462C142.88 27.978 143.701 27.736 144.64 27.736C145.857 27.736 146.774 28.0953 147.39 28.814C148.006 29.518 148.314 30.618 148.314 32.114V39H146.312V32.224C146.312 31.212 146.136 30.486 145.784 30.046C145.432 29.5913 144.875 29.364 144.112 29.364C143.217 29.364 142.513 29.672 142 30.288C141.487 30.8893 141.23 31.7107 141.23 32.752V39H139.228V32.224C139.228 31.212 139.052 30.486 138.7 30.046C138.363 29.5913 137.805 29.364 137.028 29.364C136.133 29.364 135.429 29.672 134.916 30.288C134.417 30.8893 134.168 31.7107 134.168 32.752V39H132.166ZM155.812 39.198C154.844 39.198 153.993 38.9707 153.26 38.516C152.527 38.0613 151.955 37.4013 151.544 36.536C151.133 35.6707 150.928 34.644 150.928 33.456C150.928 32.268 151.133 31.2487 151.544 30.398C151.955 29.5327 152.527 28.8727 153.26 28.418C153.993 27.9633 154.844 27.736 155.812 27.736C156.795 27.736 157.645 27.9853 158.364 28.484C159.097 28.968 159.581 29.6353 159.816 30.486H159.552L159.794 27.934H161.73C161.686 28.374 161.642 28.814 161.598 29.254C161.569 29.694 161.554 30.1267 161.554 30.552V39H159.552V36.47H159.794C159.559 37.306 159.075 37.9733 158.342 38.472C157.623 38.956 156.78 39.198 155.812 39.198ZM156.274 37.614C157.271 37.614 158.071 37.262 158.672 36.558C159.273 35.854 159.574 34.82 159.574 33.456C159.574 32.092 159.273 31.0653 158.672 30.376C158.071 29.6867 157.271 29.342 156.274 29.342C155.277 29.342 154.47 29.6867 153.854 30.376C153.253 31.0653 152.952 32.092 152.952 33.456C152.952 34.82 153.253 35.854 153.854 36.558C154.455 37.262 155.262 37.614 156.274 37.614ZM164.908 39V27.934H166.91V39H164.908ZM164.732 25.514V23.358H167.108V25.514H164.732ZM170.258 39V22.808H172.26V39H170.258Z" fill="white"/>
</svg>
