<svg width="240" height="80" viewBox="0 0 240 80" fill="none" xmlns="http://www.w3.org/2000/svg">
<rect width="240" height="80" rx="40" fill="#53AAE3"/>
<mask id="mask0_162_1486" style="mask-type:luminance" maskUnits="userSpaceOnUse" x="51" y="25" width="30" height="30">
<path d="M51 25H81V55H51V25Z" fill="white"/>
</mask>
<g mask="url(#mask0_162_1486)">
<path d="M78.225 28.3454L52.8313 38.039C51.5432 38.5307 51.5644 39.2747 52.8782 39.6927L58.5832 41.3251L61.582 49.9005C62.037 51.202 63.2391 51.5026 64.2533 50.5689L68.0686 47.056L73.43 51.3733C74.5195 52.2182 75.6346 51.8039 75.9082 50.4528L80.069 29.9081C80.3426 28.5571 79.5129 27.8539 78.225 28.3454Z" stroke="white" stroke-width="1.5" stroke-miterlimit="10" stroke-linecap="round" stroke-linejoin="round"/>
<path d="M58.6602 41.2857L73.9419 33.4785L64.1407 43.893L62.4067 50.916" stroke="white" stroke-width="1.5" stroke-miterlimit="10" stroke-linecap="round" stroke-linejoin="round"/>
<path d="M64.1875 43.9304L73.3843 51.3359" stroke="white" stroke-width="1.5" stroke-miterlimit="10" stroke-linecap="round" stroke-linejoin="round"/>
</g>
<path d="M102.033 47V33.228H96.6649V31.49H109.491V33.228H104.101V47H102.033ZM114.799 47.198C113.039 47.198 111.646 46.692 110.619 45.68C109.607 44.668 109.101 43.2747 109.101 41.5C109.101 40.3267 109.321 39.3147 109.761 38.464C110.216 37.5987 110.839 36.9313 111.631 36.462C112.423 35.978 113.347 35.736 114.403 35.736C115.415 35.736 116.273 35.956 116.977 36.396C117.681 36.8213 118.216 37.43 118.583 38.222C118.95 39.014 119.133 39.9527 119.133 41.038V41.698H110.663V40.51H117.769L117.395 40.796C117.395 39.652 117.138 38.7647 116.625 38.134C116.126 37.5033 115.386 37.188 114.403 37.188C113.332 37.188 112.504 37.562 111.917 38.31C111.33 39.0433 111.037 40.048 111.037 41.324V41.522C111.037 42.8713 111.367 43.8907 112.027 44.58C112.702 45.2693 113.633 45.614 114.821 45.614C115.481 45.614 116.097 45.5187 116.669 45.328C117.241 45.1373 117.791 44.822 118.319 44.382L118.979 45.768C118.48 46.2227 117.857 46.5747 117.109 46.824C116.376 47.0733 115.606 47.198 114.799 47.198ZM121.749 47V30.808H123.751V47H121.749ZM132.137 47.198C130.377 47.198 128.983 46.692 127.957 45.68C126.945 44.668 126.439 43.2747 126.439 41.5C126.439 40.3267 126.659 39.3147 127.099 38.464C127.553 37.5987 128.177 36.9313 128.969 36.462C129.761 35.978 130.685 35.736 131.741 35.736C132.753 35.736 133.611 35.956 134.315 36.396C135.019 36.8213 135.554 37.43 135.921 38.222C136.287 39.014 136.471 39.9527 136.471 41.038V41.698H128.001V40.51H135.107L134.733 40.796C134.733 39.652 134.476 38.7647 133.963 38.134C133.464 37.5033 132.723 37.188 131.741 37.188C130.67 37.188 129.841 37.562 129.255 38.31C128.668 39.0433 128.375 40.048 128.375 41.324V41.522C128.375 42.8713 128.705 43.8907 129.365 44.58C130.039 45.2693 130.971 45.614 132.159 45.614C132.819 45.614 133.435 45.5187 134.007 45.328C134.579 45.1373 135.129 44.822 135.657 44.382L136.317 45.768C135.818 46.2227 135.195 46.5747 134.447 46.824C133.713 47.0733 132.943 47.198 132.137 47.198ZM144.015 51.928C143.047 51.928 142.16 51.8107 141.353 51.576C140.546 51.3413 139.82 50.982 139.175 50.498L139.703 49.024C140.158 49.332 140.605 49.5813 141.045 49.772C141.485 49.9627 141.94 50.102 142.409 50.19C142.893 50.278 143.392 50.322 143.905 50.322C144.99 50.322 145.804 50.0433 146.347 49.486C146.89 48.9287 147.161 48.1367 147.161 47.11V44.008H147.381C147.146 44.844 146.662 45.5113 145.929 46.01C145.21 46.494 144.36 46.736 143.377 46.736C142.38 46.736 141.507 46.516 140.759 46.076C140.026 45.6213 139.454 44.9833 139.043 44.162C138.632 43.326 138.427 42.3507 138.427 41.236C138.427 40.1067 138.632 39.1313 139.043 38.31C139.454 37.4887 140.026 36.858 140.759 36.418C141.507 35.9633 142.38 35.736 143.377 35.736C144.36 35.736 145.21 35.978 145.929 36.462C146.648 36.946 147.124 37.6133 147.359 38.464L147.161 38.266L147.359 35.934H149.295C149.251 36.374 149.207 36.814 149.163 37.254C149.134 37.694 149.119 38.1267 149.119 38.552V46.868C149.119 48.5107 148.686 49.7647 147.821 50.63C146.97 51.4953 145.702 51.928 144.015 51.928ZM143.817 45.152C144.829 45.152 145.636 44.8073 146.237 44.118C146.838 43.4287 147.139 42.468 147.139 41.236C147.139 39.9893 146.838 39.0287 146.237 38.354C145.636 37.6793 144.829 37.342 143.817 37.342C142.79 37.342 141.969 37.6793 141.353 38.354C140.752 39.0287 140.451 39.9893 140.451 41.236C140.451 42.468 140.752 43.4287 141.353 44.118C141.969 44.8073 142.79 45.152 143.817 45.152ZM152.45 47V38.64C152.45 38.2 152.435 37.7527 152.406 37.298C152.391 36.8287 152.354 36.374 152.296 35.934H154.232L154.474 38.706L154.144 38.728C154.29 38.0533 154.54 37.496 154.892 37.056C155.258 36.6013 155.691 36.2713 156.19 36.066C156.703 35.846 157.231 35.736 157.774 35.736C158.008 35.736 158.206 35.7433 158.368 35.758C158.529 35.7727 158.69 35.8093 158.852 35.868L158.808 37.65C158.588 37.562 158.382 37.5107 158.192 37.496C158.016 37.4667 157.796 37.452 157.532 37.452C156.886 37.452 156.329 37.5987 155.86 37.892C155.405 38.1853 155.053 38.574 154.804 39.058C154.569 39.542 154.452 40.0627 154.452 40.62V47H152.45ZM164.731 47.198C163.763 47.198 162.912 46.9707 162.179 46.516C161.446 46.0613 160.874 45.4013 160.463 44.536C160.052 43.6707 159.847 42.644 159.847 41.456C159.847 40.268 160.052 39.2487 160.463 38.398C160.874 37.5327 161.446 36.8727 162.179 36.418C162.912 35.9633 163.763 35.736 164.731 35.736C165.714 35.736 166.564 35.9853 167.283 36.484C168.016 36.968 168.5 37.6353 168.735 38.486H168.471L168.713 35.934H170.649C170.605 36.374 170.561 36.814 170.517 37.254C170.488 37.694 170.473 38.1267 170.473 38.552V47H168.471V44.47H168.713C168.478 45.306 167.994 45.9733 167.261 46.472C166.542 46.956 165.699 47.198 164.731 47.198ZM165.193 45.614C166.19 45.614 166.99 45.262 167.591 44.558C168.192 43.854 168.493 42.82 168.493 41.456C168.493 40.092 168.192 39.0653 167.591 38.376C166.99 37.6867 166.19 37.342 165.193 37.342C164.196 37.342 163.389 37.6867 162.773 38.376C162.172 39.0653 161.871 40.092 161.871 41.456C161.871 42.82 162.172 43.854 162.773 44.558C163.374 45.262 164.181 45.614 165.193 45.614ZM173.827 47V38.552C173.827 38.1267 173.813 37.694 173.783 37.254C173.754 36.814 173.71 36.374 173.651 35.934H175.587L175.807 38.31H175.543C175.837 37.4887 176.306 36.858 176.951 36.418C177.597 35.9633 178.367 35.736 179.261 35.736C180.171 35.736 180.919 35.956 181.505 36.396C182.092 36.8213 182.488 37.496 182.693 38.42H182.363C182.642 37.5987 183.133 36.946 183.837 36.462C184.541 35.978 185.363 35.736 186.301 35.736C187.519 35.736 188.435 36.0953 189.051 36.814C189.667 37.518 189.975 38.618 189.975 40.114V47H187.973V40.224C187.973 39.212 187.797 38.486 187.445 38.046C187.093 37.5913 186.536 37.364 185.773 37.364C184.879 37.364 184.175 37.672 183.661 38.288C183.148 38.8893 182.891 39.7107 182.891 40.752V47H180.889V40.224C180.889 39.212 180.713 38.486 180.361 38.046C180.024 37.5913 179.467 37.364 178.689 37.364C177.795 37.364 177.091 37.672 176.577 38.288C176.079 38.8893 175.829 39.7107 175.829 40.752V47H173.827Z" fill="white"/>
</svg>
