<svg width="240" height="64" viewBox="0 0 240 64" fill="none" xmlns="http://www.w3.org/2000/svg">
<rect width="240" height="64" rx="32" fill="#53AAE3"/>
<mask id="mask0_280_6056" style="mask-type:luminance" maskUnits="userSpaceOnUse" x="51" y="17" width="30" height="30">
<path d="M51 17H81V47H51V17Z" fill="white"/>
</mask>
<g mask="url(#mask0_280_6056)">
<path d="M78.225 20.3464L52.8313 30.04C51.5432 30.5316 51.5644 31.2757 52.8782 31.6937L58.5832 33.3261L61.582 41.9015C62.037 43.2029 63.2391 43.5035 64.2533 42.5698L68.0686 39.057L73.43 43.3743C74.5195 44.2192 75.6346 43.8049 75.9082 42.4538L80.069 21.9091C80.3426 20.558 79.5129 19.8549 78.225 20.3464Z" stroke="white" stroke-width="1.5" stroke-miterlimit="10" stroke-linecap="round" stroke-linejoin="round"/>
<path d="M58.6602 33.2877L73.9419 25.4805L64.1407 35.8949L62.4067 42.918" stroke="white" stroke-width="1.5" stroke-miterlimit="10" stroke-linecap="round" stroke-linejoin="round"/>
<path d="M64.1875 35.9304L73.3843 43.3359" stroke="white" stroke-width="1.5" stroke-miterlimit="10" stroke-linecap="round" stroke-linejoin="round"/>
</g>
<path d="M102.033 39V25.228H96.6649V23.49H109.491V25.228H104.101V39H102.033ZM114.799 39.198C113.039 39.198 111.646 38.692 110.619 37.68C109.607 36.668 109.101 35.2747 109.101 33.5C109.101 32.3267 109.321 31.3147 109.761 30.464C110.216 29.5987 110.839 28.9313 111.631 28.462C112.423 27.978 113.347 27.736 114.403 27.736C115.415 27.736 116.273 27.956 116.977 28.396C117.681 28.8213 118.216 29.43 118.583 30.222C118.95 31.014 119.133 31.9527 119.133 33.038V33.698H110.663V32.51H117.769L117.395 32.796C117.395 31.652 117.138 30.7647 116.625 30.134C116.126 29.5033 115.386 29.188 114.403 29.188C113.332 29.188 112.504 29.562 111.917 30.31C111.33 31.0433 111.037 32.048 111.037 33.324V33.522C111.037 34.8713 111.367 35.8907 112.027 36.58C112.702 37.2693 113.633 37.614 114.821 37.614C115.481 37.614 116.097 37.5187 116.669 37.328C117.241 37.1373 117.791 36.822 118.319 36.382L118.979 37.768C118.48 38.2227 117.857 38.5747 117.109 38.824C116.376 39.0733 115.606 39.198 114.799 39.198ZM121.749 39V22.808H123.751V39H121.749ZM132.137 39.198C130.377 39.198 128.983 38.692 127.957 37.68C126.945 36.668 126.439 35.2747 126.439 33.5C126.439 32.3267 126.659 31.3147 127.099 30.464C127.553 29.5987 128.177 28.9313 128.969 28.462C129.761 27.978 130.685 27.736 131.741 27.736C132.753 27.736 133.611 27.956 134.315 28.396C135.019 28.8213 135.554 29.43 135.921 30.222C136.287 31.014 136.471 31.9527 136.471 33.038V33.698H128.001V32.51H135.107L134.733 32.796C134.733 31.652 134.476 30.7647 133.963 30.134C133.464 29.5033 132.723 29.188 131.741 29.188C130.67 29.188 129.841 29.562 129.255 30.31C128.668 31.0433 128.375 32.048 128.375 33.324V33.522C128.375 34.8713 128.705 35.8907 129.365 36.58C130.039 37.2693 130.971 37.614 132.159 37.614C132.819 37.614 133.435 37.5187 134.007 37.328C134.579 37.1373 135.129 36.822 135.657 36.382L136.317 37.768C135.818 38.2227 135.195 38.5747 134.447 38.824C133.713 39.0733 132.943 39.198 132.137 39.198ZM144.015 43.928C143.047 43.928 142.16 43.8107 141.353 43.576C140.546 43.3413 139.82 42.982 139.175 42.498L139.703 41.024C140.158 41.332 140.605 41.5813 141.045 41.772C141.485 41.9627 141.94 42.102 142.409 42.19C142.893 42.278 143.392 42.322 143.905 42.322C144.99 42.322 145.804 42.0433 146.347 41.486C146.89 40.9287 147.161 40.1367 147.161 39.11V36.008H147.381C147.146 36.844 146.662 37.5113 145.929 38.01C145.21 38.494 144.36 38.736 143.377 38.736C142.38 38.736 141.507 38.516 140.759 38.076C140.026 37.6213 139.454 36.9833 139.043 36.162C138.632 35.326 138.427 34.3507 138.427 33.236C138.427 32.1067 138.632 31.1313 139.043 30.31C139.454 29.4887 140.026 28.858 140.759 28.418C141.507 27.9633 142.38 27.736 143.377 27.736C144.36 27.736 145.21 27.978 145.929 28.462C146.648 28.946 147.124 29.6133 147.359 30.464L147.161 30.266L147.359 27.934H149.295C149.251 28.374 149.207 28.814 149.163 29.254C149.134 29.694 149.119 30.1267 149.119 30.552V38.868C149.119 40.5107 148.686 41.7647 147.821 42.63C146.97 43.4953 145.702 43.928 144.015 43.928ZM143.817 37.152C144.829 37.152 145.636 36.8073 146.237 36.118C146.838 35.4287 147.139 34.468 147.139 33.236C147.139 31.9893 146.838 31.0287 146.237 30.354C145.636 29.6793 144.829 29.342 143.817 29.342C142.79 29.342 141.969 29.6793 141.353 30.354C140.752 31.0287 140.451 31.9893 140.451 33.236C140.451 34.468 140.752 35.4287 141.353 36.118C141.969 36.8073 142.79 37.152 143.817 37.152ZM152.45 39V30.64C152.45 30.2 152.435 29.7527 152.406 29.298C152.391 28.8287 152.354 28.374 152.296 27.934H154.232L154.474 30.706L154.144 30.728C154.29 30.0533 154.54 29.496 154.892 29.056C155.258 28.6013 155.691 28.2713 156.19 28.066C156.703 27.846 157.231 27.736 157.774 27.736C158.008 27.736 158.206 27.7433 158.368 27.758C158.529 27.7727 158.69 27.8093 158.852 27.868L158.808 29.65C158.588 29.562 158.382 29.5107 158.192 29.496C158.016 29.4667 157.796 29.452 157.532 29.452C156.886 29.452 156.329 29.5987 155.86 29.892C155.405 30.1853 155.053 30.574 154.804 31.058C154.569 31.542 154.452 32.0627 154.452 32.62V39H152.45ZM164.731 39.198C163.763 39.198 162.912 38.9707 162.179 38.516C161.446 38.0613 160.874 37.4013 160.463 36.536C160.052 35.6707 159.847 34.644 159.847 33.456C159.847 32.268 160.052 31.2487 160.463 30.398C160.874 29.5327 161.446 28.8727 162.179 28.418C162.912 27.9633 163.763 27.736 164.731 27.736C165.714 27.736 166.564 27.9853 167.283 28.484C168.016 28.968 168.5 29.6353 168.735 30.486H168.471L168.713 27.934H170.649C170.605 28.374 170.561 28.814 170.517 29.254C170.488 29.694 170.473 30.1267 170.473 30.552V39H168.471V36.47H168.713C168.478 37.306 167.994 37.9733 167.261 38.472C166.542 38.956 165.699 39.198 164.731 39.198ZM165.193 37.614C166.19 37.614 166.99 37.262 167.591 36.558C168.192 35.854 168.493 34.82 168.493 33.456C168.493 32.092 168.192 31.0653 167.591 30.376C166.99 29.6867 166.19 29.342 165.193 29.342C164.196 29.342 163.389 29.6867 162.773 30.376C162.172 31.0653 161.871 32.092 161.871 33.456C161.871 34.82 162.172 35.854 162.773 36.558C163.374 37.262 164.181 37.614 165.193 37.614ZM173.827 39V30.552C173.827 30.1267 173.813 29.694 173.783 29.254C173.754 28.814 173.71 28.374 173.651 27.934H175.587L175.807 30.31H175.543C175.837 29.4887 176.306 28.858 176.951 28.418C177.597 27.9633 178.367 27.736 179.261 27.736C180.171 27.736 180.919 27.956 181.505 28.396C182.092 28.8213 182.488 29.496 182.693 30.42H182.363C182.642 29.5987 183.133 28.946 183.837 28.462C184.541 27.978 185.363 27.736 186.301 27.736C187.519 27.736 188.435 28.0953 189.051 28.814C189.667 29.518 189.975 30.618 189.975 32.114V39H187.973V32.224C187.973 31.212 187.797 30.486 187.445 30.046C187.093 29.5913 186.536 29.364 185.773 29.364C184.879 29.364 184.175 29.672 183.661 30.288C183.148 30.8893 182.891 31.7107 182.891 32.752V39H180.889V32.224C180.889 31.212 180.713 30.486 180.361 30.046C180.024 29.5913 179.467 29.364 178.689 29.364C177.795 29.364 177.091 29.672 176.577 30.288C176.079 30.8893 175.829 31.7107 175.829 32.752V39H173.827Z" fill="white"/>
</svg>
