<svg width="240" height="80" viewBox="0 0 240 80" fill="none" xmlns="http://www.w3.org/2000/svg">
<rect width="240" height="80" rx="40" fill="#71CF5B"/>
<path d="M61.3848 23.6664C67.7825 24.5417 73.217 29.3474 74.9271 35.6499C75.6563 38.3375 75.6909 41.3395 75.0223 44.0008C73.6506 49.4453 69.5623 53.8659 64.2492 55.6428C59.7089 57.166 54.6739 56.6405 50.6373 54.2161C50.2639 53.9972 49.9256 53.8133 49.8905 53.8133C49.8645 53.8133 48.4406 54.26 46.7305 54.8114C45.029 55.3542 43.6316 55.7742 43.6316 55.7306C43.6316 55.6957 44.0832 54.3212 44.6385 52.6843L45.6454 49.7081L45.1939 49.0253C44.6296 48.1676 43.7179 46.3029 43.3796 45.3138C40.7326 37.5759 44.231 29.0148 51.575 25.2684C54.6047 23.728 57.895 23.1938 61.3848 23.6664Z" stroke="white" stroke-width="1.5"/>
<path d="M52.0035 31.1823C51.3709 31.5198 50.4978 32.8361 50.1774 33.9358C50.1131 34.1523 50.0331 34.7237 50.0091 35.2001C49.9531 36.3084 50.1533 37.2697 50.7059 38.5165C51.1143 39.4343 52.0595 40.9755 52.9968 42.2398C54.6388 44.4649 56.6652 46.2835 58.5875 47.2793C60.0853 48.0501 62.392 48.8725 63.3691 48.985C64.7069 49.1324 66.7411 48.1711 67.4542 47.0454C67.9189 46.318 68.1751 44.5343 67.8625 44.2228C67.7025 44.0669 64.6667 42.4652 64.066 42.2142C63.8578 42.1277 63.6013 42.0842 63.4972 42.1191C63.377 42.1451 63.0648 42.4916 62.712 42.9675C61.8472 44.1441 61.4227 44.5944 61.1902 44.5944C60.878 44.5944 59.3239 43.7806 58.4512 43.1572C57.3377 42.3604 55.9041 40.8021 55.1272 39.5464C54.8068 39.0355 54.5506 38.5161 54.5506 38.4036C54.5506 38.2821 54.7587 37.9446 55.1111 37.5032C55.6235 36.8538 56.072 36.0834 56.072 35.8405C56.072 35.7886 55.7035 34.7842 55.2549 33.6065C54.7264 32.2383 54.3578 31.3899 54.2218 31.2339C54.0137 31.0089 53.9735 31 53.1726 31C52.4919 31.0004 52.2837 31.0349 52.0035 31.1823Z" stroke="white" stroke-width="1.5"/>
<path d="M95.3743 47L89.9403 31.49H92.0963L96.6943 45.174H95.9023L100.786 31.49H102.392L106.968 45.174H106.264L111.016 31.49H113.04L107.562 47H105.78L101.314 33.91H101.776L97.1343 47H95.3743ZM115.422 47V30.808H117.424V38.332H117.138C117.461 37.4813 117.981 36.836 118.7 36.396C119.419 35.956 120.247 35.736 121.186 35.736C122.521 35.736 123.503 36.0953 124.134 36.814C124.779 37.5327 125.102 38.618 125.102 40.07V47H123.1V40.18C123.1 39.1973 122.909 38.486 122.528 38.046C122.147 37.5913 121.523 37.364 120.658 37.364C119.69 37.364 118.905 37.6647 118.304 38.266C117.717 38.8673 117.424 39.6667 117.424 40.664V47H115.422ZM132.601 47.198C131.633 47.198 130.782 46.9707 130.049 46.516C129.316 46.0613 128.744 45.4013 128.333 44.536C127.922 43.6707 127.717 42.644 127.717 41.456C127.717 40.268 127.922 39.2487 128.333 38.398C128.744 37.5327 129.316 36.8727 130.049 36.418C130.782 35.9633 131.633 35.736 132.601 35.736C133.584 35.736 134.434 35.9853 135.153 36.484C135.886 36.968 136.37 37.6353 136.605 38.486H136.341L136.583 35.934H138.519C138.475 36.374 138.431 36.814 138.387 37.254C138.358 37.694 138.343 38.1267 138.343 38.552V47H136.341V44.47H136.583C136.348 45.306 135.864 45.9733 135.131 46.472C134.412 46.956 133.569 47.198 132.601 47.198ZM133.063 45.614C134.06 45.614 134.86 45.262 135.461 44.558C136.062 43.854 136.363 42.82 136.363 41.456C136.363 40.092 136.062 39.0653 135.461 38.376C134.86 37.6867 134.06 37.342 133.063 37.342C132.066 37.342 131.259 37.6867 130.643 38.376C130.042 39.0653 129.741 40.092 129.741 41.456C129.741 42.82 130.042 43.854 130.643 44.558C131.244 45.262 132.051 45.614 133.063 45.614ZM145.833 47.198C144.675 47.198 143.795 46.8827 143.193 46.252C142.607 45.6067 142.313 44.6387 142.313 43.348V37.474H140.157V35.934H142.313V32.964L144.315 32.414V35.934H147.439V37.474H144.315V43.172C144.315 44.0227 144.462 44.6313 144.755 44.998C145.063 45.35 145.503 45.526 146.075 45.526C146.369 45.526 146.618 45.504 146.823 45.46C147.043 45.4013 147.241 45.3353 147.417 45.262V46.912C147.197 47 146.941 47.066 146.647 47.11C146.369 47.1687 146.097 47.198 145.833 47.198ZM153.279 47.198C152.385 47.198 151.549 47.0807 150.771 46.846C150.009 46.6113 149.378 46.274 148.879 45.834L149.517 44.448C150.06 44.8587 150.654 45.174 151.299 45.394C151.959 45.5993 152.634 45.702 153.323 45.702C154.159 45.702 154.79 45.548 155.215 45.24C155.655 44.932 155.875 44.5213 155.875 44.008C155.875 43.5973 155.736 43.2673 155.457 43.018C155.179 42.7687 154.739 42.5853 154.137 42.468L152.047 42.05C151.109 41.83 150.397 41.478 149.913 40.994C149.444 40.4953 149.209 39.8573 149.209 39.08C149.209 38.4347 149.385 37.8627 149.737 37.364C150.089 36.8507 150.588 36.4547 151.233 36.176C151.893 35.8827 152.663 35.736 153.543 35.736C154.35 35.736 155.098 35.8533 155.787 36.088C156.491 36.3227 157.071 36.6673 157.525 37.122L156.865 38.464C156.411 38.068 155.897 37.7673 155.325 37.562C154.768 37.342 154.196 37.232 153.609 37.232C152.759 37.232 152.128 37.4007 151.717 37.738C151.307 38.0607 151.101 38.486 151.101 39.014C151.101 39.41 151.226 39.74 151.475 40.004C151.725 40.2533 152.128 40.444 152.685 40.576L154.775 40.994C155.758 41.1993 156.499 41.5367 156.997 42.006C157.496 42.4753 157.745 43.0987 157.745 43.876C157.745 44.5653 157.555 45.1593 157.173 45.658C156.807 46.1567 156.286 46.538 155.611 46.802C154.951 47.066 154.174 47.198 153.279 47.198ZM164.699 47.198C163.731 47.198 162.88 46.9707 162.147 46.516C161.413 46.0613 160.841 45.4013 160.431 44.536C160.02 43.6707 159.815 42.644 159.815 41.456C159.815 40.268 160.02 39.2487 160.431 38.398C160.841 37.5327 161.413 36.8727 162.147 36.418C162.88 35.9633 163.731 35.736 164.699 35.736C165.681 35.736 166.532 35.9853 167.251 36.484C167.984 36.968 168.468 37.6353 168.703 38.486H168.439L168.681 35.934H170.617C170.573 36.374 170.529 36.814 170.485 37.254C170.455 37.694 170.441 38.1267 170.441 38.552V47H168.439V44.47H168.681C168.446 45.306 167.962 45.9733 167.229 46.472C166.51 46.956 165.667 47.198 164.699 47.198ZM165.161 45.614C166.158 45.614 166.957 45.262 167.559 44.558C168.16 43.854 168.461 42.82 168.461 41.456C168.461 40.092 168.16 39.0653 167.559 38.376C166.957 37.6867 166.158 37.342 165.161 37.342C164.163 37.342 163.357 37.6867 162.741 38.376C162.139 39.0653 161.839 40.092 161.839 41.456C161.839 42.82 162.139 43.854 162.741 44.558C163.342 45.262 164.149 45.614 165.161 45.614ZM173.795 51.752V38.552C173.795 38.1267 173.78 37.694 173.751 37.254C173.722 36.814 173.678 36.374 173.619 35.934H175.555L175.797 38.486H175.555C175.775 37.6353 176.244 36.968 176.963 36.484C177.682 35.9853 178.54 35.736 179.537 35.736C180.52 35.736 181.378 35.9633 182.111 36.418C182.844 36.8727 183.409 37.5327 183.805 38.398C184.216 39.2487 184.421 40.268 184.421 41.456C184.421 42.644 184.216 43.6707 183.805 44.536C183.409 45.4013 182.844 46.0613 182.111 46.516C181.378 46.9707 180.52 47.198 179.537 47.198C178.554 47.198 177.704 46.956 176.985 46.472C176.281 45.9733 175.804 45.306 175.555 44.47H175.797V51.752H173.795ZM179.075 45.614C180.087 45.614 180.894 45.262 181.495 44.558C182.096 43.854 182.397 42.82 182.397 41.456C182.397 40.092 182.096 39.0653 181.495 38.376C180.894 37.6867 180.087 37.342 179.075 37.342C178.063 37.342 177.256 37.6867 176.655 38.376C176.068 39.0653 175.775 40.092 175.775 41.456C175.775 42.82 176.068 43.854 176.655 44.558C177.256 45.262 178.063 45.614 179.075 45.614ZM187.115 51.752V38.552C187.115 38.1267 187.101 37.694 187.071 37.254C187.042 36.814 186.998 36.374 186.939 35.934H188.875L189.117 38.486H188.875C189.095 37.6353 189.565 36.968 190.283 36.484C191.002 35.9853 191.86 35.736 192.857 35.736C193.84 35.736 194.698 35.9633 195.431 36.418C196.165 36.8727 196.729 37.5327 197.125 38.398C197.536 39.2487 197.741 40.268 197.741 41.456C197.741 42.644 197.536 43.6707 197.125 44.536C196.729 45.4013 196.165 46.0613 195.431 46.516C194.698 46.9707 193.84 47.198 192.857 47.198C191.875 47.198 191.024 46.956 190.305 46.472C189.601 45.9733 189.125 45.306 188.875 44.47H189.117V51.752H187.115ZM192.395 45.614C193.407 45.614 194.214 45.262 194.815 44.558C195.417 43.854 195.717 42.82 195.717 41.456C195.717 40.092 195.417 39.0653 194.815 38.376C194.214 37.6867 193.407 37.342 192.395 37.342C191.383 37.342 190.577 37.6867 189.975 38.376C189.389 39.0653 189.095 40.092 189.095 41.456C189.095 42.82 189.389 43.854 189.975 44.558C190.577 45.262 191.383 45.614 192.395 45.614Z" fill="white"/>
</svg>
