<svg width="240" height="64" viewBox="0 0 240 64" fill="none" xmlns="http://www.w3.org/2000/svg">
<rect width="240" height="64" rx="32" fill="#71CF5B"/>
<path d="M61.3848 15.6664C67.7825 16.5417 73.217 21.3474 74.9271 27.6499C75.6563 30.3375 75.6909 33.3395 75.0223 36.0008C73.6506 41.4453 69.5623 45.8659 64.2492 47.6428C59.7089 49.166 54.6739 48.6405 50.6373 46.2161C50.2639 45.9972 49.9256 45.8133 49.8905 45.8133C49.8645 45.8133 48.4406 46.26 46.7305 46.8114C45.029 47.3542 43.6316 47.7742 43.6316 47.7306C43.6316 47.6957 44.0832 46.3212 44.6385 44.6843L45.6454 41.7081L45.1939 41.0253C44.6296 40.1676 43.7179 38.3029 43.3796 37.3138C40.7326 29.5759 44.231 21.0148 51.575 17.2684C54.6047 15.728 57.895 15.1938 61.3848 15.6664Z" stroke="white" stroke-width="1.5"/>
<path d="M52.0035 23.1823C51.3709 23.5198 50.4978 24.8361 50.1774 25.9358C50.1131 26.1523 50.0331 26.7237 50.0091 27.2001C49.9531 28.3084 50.1533 29.2697 50.7059 30.5165C51.1143 31.4343 52.0595 32.9755 52.9968 34.2398C54.6388 36.4649 56.6652 38.2835 58.5875 39.2793C60.0853 40.0501 62.392 40.8725 63.3691 40.985C64.7069 41.1324 66.7411 40.1711 67.4542 39.0454C67.9189 38.318 68.1751 36.5343 67.8625 36.2229C67.7025 36.0669 64.6667 34.4652 64.066 34.2142C63.8578 34.1277 63.6013 34.0842 63.4972 34.1192C63.377 34.1451 63.0648 34.4916 62.712 34.9675C61.8472 36.1441 61.4227 36.5945 61.1902 36.5945C60.878 36.5945 59.3239 35.7806 58.4512 35.1572C57.3377 34.3604 55.9041 32.8021 55.1272 31.5464C54.8068 31.0355 54.5506 30.5161 54.5506 30.4036C54.5506 30.2821 54.7587 29.9446 55.1111 29.5032C55.6235 28.8538 56.072 28.0834 56.072 27.8405C56.072 27.7886 55.7035 26.7842 55.2549 25.6065C54.7264 24.2383 54.3578 23.3899 54.2218 23.2339C54.0137 23.0089 53.9735 23 53.1726 23C52.4919 23.0004 52.2837 23.0349 52.0035 23.1823Z" stroke="white" stroke-width="1.5"/>
<path d="M95.3743 39L89.9403 23.49H92.0963L96.6943 37.174H95.9023L100.786 23.49H102.392L106.968 37.174H106.264L111.016 23.49H113.04L107.562 39H105.78L101.314 25.91H101.776L97.1343 39H95.3743ZM115.422 39V22.808H117.424V30.332H117.138C117.461 29.4813 117.981 28.836 118.7 28.396C119.419 27.956 120.247 27.736 121.186 27.736C122.521 27.736 123.503 28.0953 124.134 28.814C124.779 29.5327 125.102 30.618 125.102 32.07V39H123.1V32.18C123.1 31.1973 122.909 30.486 122.528 30.046C122.147 29.5913 121.523 29.364 120.658 29.364C119.69 29.364 118.905 29.6647 118.304 30.266C117.717 30.8673 117.424 31.6667 117.424 32.664V39H115.422ZM132.601 39.198C131.633 39.198 130.782 38.9707 130.049 38.516C129.316 38.0613 128.744 37.4013 128.333 36.536C127.922 35.6707 127.717 34.644 127.717 33.456C127.717 32.268 127.922 31.2487 128.333 30.398C128.744 29.5327 129.316 28.8727 130.049 28.418C130.782 27.9633 131.633 27.736 132.601 27.736C133.584 27.736 134.434 27.9853 135.153 28.484C135.886 28.968 136.37 29.6353 136.605 30.486H136.341L136.583 27.934H138.519C138.475 28.374 138.431 28.814 138.387 29.254C138.358 29.694 138.343 30.1267 138.343 30.552V39H136.341V36.47H136.583C136.348 37.306 135.864 37.9733 135.131 38.472C134.412 38.956 133.569 39.198 132.601 39.198ZM133.063 37.614C134.06 37.614 134.86 37.262 135.461 36.558C136.062 35.854 136.363 34.82 136.363 33.456C136.363 32.092 136.062 31.0653 135.461 30.376C134.86 29.6867 134.06 29.342 133.063 29.342C132.066 29.342 131.259 29.6867 130.643 30.376C130.042 31.0653 129.741 32.092 129.741 33.456C129.741 34.82 130.042 35.854 130.643 36.558C131.244 37.262 132.051 37.614 133.063 37.614ZM145.833 39.198C144.675 39.198 143.795 38.8827 143.193 38.252C142.607 37.6067 142.313 36.6387 142.313 35.348V29.474H140.157V27.934H142.313V24.964L144.315 24.414V27.934H147.439V29.474H144.315V35.172C144.315 36.0227 144.462 36.6313 144.755 36.998C145.063 37.35 145.503 37.526 146.075 37.526C146.369 37.526 146.618 37.504 146.823 37.46C147.043 37.4013 147.241 37.3353 147.417 37.262V38.912C147.197 39 146.941 39.066 146.647 39.11C146.369 39.1687 146.097 39.198 145.833 39.198ZM153.279 39.198C152.385 39.198 151.549 39.0807 150.771 38.846C150.009 38.6113 149.378 38.274 148.879 37.834L149.517 36.448C150.06 36.8587 150.654 37.174 151.299 37.394C151.959 37.5993 152.634 37.702 153.323 37.702C154.159 37.702 154.79 37.548 155.215 37.24C155.655 36.932 155.875 36.5213 155.875 36.008C155.875 35.5973 155.736 35.2673 155.457 35.018C155.179 34.7687 154.739 34.5853 154.137 34.468L152.047 34.05C151.109 33.83 150.397 33.478 149.913 32.994C149.444 32.4953 149.209 31.8573 149.209 31.08C149.209 30.4347 149.385 29.8627 149.737 29.364C150.089 28.8507 150.588 28.4547 151.233 28.176C151.893 27.8827 152.663 27.736 153.543 27.736C154.35 27.736 155.098 27.8533 155.787 28.088C156.491 28.3227 157.071 28.6673 157.525 29.122L156.865 30.464C156.411 30.068 155.897 29.7673 155.325 29.562C154.768 29.342 154.196 29.232 153.609 29.232C152.759 29.232 152.128 29.4007 151.717 29.738C151.307 30.0607 151.101 30.486 151.101 31.014C151.101 31.41 151.226 31.74 151.475 32.004C151.725 32.2533 152.128 32.444 152.685 32.576L154.775 32.994C155.758 33.1993 156.499 33.5367 156.997 34.006C157.496 34.4753 157.745 35.0987 157.745 35.876C157.745 36.5653 157.555 37.1593 157.173 37.658C156.807 38.1567 156.286 38.538 155.611 38.802C154.951 39.066 154.174 39.198 153.279 39.198ZM164.699 39.198C163.731 39.198 162.88 38.9707 162.147 38.516C161.413 38.0613 160.841 37.4013 160.431 36.536C160.02 35.6707 159.815 34.644 159.815 33.456C159.815 32.268 160.02 31.2487 160.431 30.398C160.841 29.5327 161.413 28.8727 162.147 28.418C162.88 27.9633 163.731 27.736 164.699 27.736C165.681 27.736 166.532 27.9853 167.251 28.484C167.984 28.968 168.468 29.6353 168.703 30.486H168.439L168.681 27.934H170.617C170.573 28.374 170.529 28.814 170.485 29.254C170.455 29.694 170.441 30.1267 170.441 30.552V39H168.439V36.47H168.681C168.446 37.306 167.962 37.9733 167.229 38.472C166.51 38.956 165.667 39.198 164.699 39.198ZM165.161 37.614C166.158 37.614 166.957 37.262 167.559 36.558C168.16 35.854 168.461 34.82 168.461 33.456C168.461 32.092 168.16 31.0653 167.559 30.376C166.957 29.6867 166.158 29.342 165.161 29.342C164.163 29.342 163.357 29.6867 162.741 30.376C162.139 31.0653 161.839 32.092 161.839 33.456C161.839 34.82 162.139 35.854 162.741 36.558C163.342 37.262 164.149 37.614 165.161 37.614ZM173.795 43.752V30.552C173.795 30.1267 173.78 29.694 173.751 29.254C173.722 28.814 173.678 28.374 173.619 27.934H175.555L175.797 30.486H175.555C175.775 29.6353 176.244 28.968 176.963 28.484C177.682 27.9853 178.54 27.736 179.537 27.736C180.52 27.736 181.378 27.9633 182.111 28.418C182.844 28.8727 183.409 29.5327 183.805 30.398C184.216 31.2487 184.421 32.268 184.421 33.456C184.421 34.644 184.216 35.6707 183.805 36.536C183.409 37.4013 182.844 38.0613 182.111 38.516C181.378 38.9707 180.52 39.198 179.537 39.198C178.554 39.198 177.704 38.956 176.985 38.472C176.281 37.9733 175.804 37.306 175.555 36.47H175.797V43.752H173.795ZM179.075 37.614C180.087 37.614 180.894 37.262 181.495 36.558C182.096 35.854 182.397 34.82 182.397 33.456C182.397 32.092 182.096 31.0653 181.495 30.376C180.894 29.6867 180.087 29.342 179.075 29.342C178.063 29.342 177.256 29.6867 176.655 30.376C176.068 31.0653 175.775 32.092 175.775 33.456C175.775 34.82 176.068 35.854 176.655 36.558C177.256 37.262 178.063 37.614 179.075 37.614ZM187.115 43.752V30.552C187.115 30.1267 187.101 29.694 187.071 29.254C187.042 28.814 186.998 28.374 186.939 27.934H188.875L189.117 30.486H188.875C189.095 29.6353 189.565 28.968 190.283 28.484C191.002 27.9853 191.86 27.736 192.857 27.736C193.84 27.736 194.698 27.9633 195.431 28.418C196.165 28.8727 196.729 29.5327 197.125 30.398C197.536 31.2487 197.741 32.268 197.741 33.456C197.741 34.644 197.536 35.6707 197.125 36.536C196.729 37.4013 196.165 38.0613 195.431 38.516C194.698 38.9707 193.84 39.198 192.857 39.198C191.875 39.198 191.024 38.956 190.305 38.472C189.601 37.9733 189.125 37.306 188.875 36.47H189.117V43.752H187.115ZM192.395 37.614C193.407 37.614 194.214 37.262 194.815 36.558C195.417 35.854 195.717 34.82 195.717 33.456C195.717 32.092 195.417 31.0653 194.815 30.376C194.214 29.6867 193.407 29.342 192.395 29.342C191.383 29.342 190.577 29.6867 189.975 30.376C189.389 31.0653 189.095 32.092 189.095 33.456C189.095 34.82 189.389 35.854 189.975 36.558C190.577 37.262 191.383 37.614 192.395 37.614Z" fill="white"/>
</svg>
