<svg width="380" height="200" viewBox="0 0 380 200" fill="none" xmlns="http://www.w3.org/2000/svg">
<circle cx="189.5" cy="95" r="75" fill="#EBF3FF"/>
<path d="M156 125.049C154.8 124.249 149.167 119.715 146.5 117.549L127 129.049V143.049L145.5 152.049C146.5 153.049 149.5 155.049 153.5 155.049C157.5 155.049 158.326 152.276 158.239 150.89C158.679 150.994 159.1 151.049 159.5 151.049C164.7 151.049 165.678 147.715 165.512 146.549C169.653 147.563 172.34 144.908 171.5 141.549C170.5 137.549 157.5 126.049 156 125.049Z" fill="white"/>
<path d="M165.512 146.549C169.653 147.563 172.34 144.908 171.5 141.549C170.5 137.549 157.5 126.049 156 125.049C154.8 124.249 149.167 119.715 146.5 117.549L127 129.049V143.049L145.5 152.049C146.5 153.049 149.5 155.049 153.5 155.049C157.5 155.049 158.326 152.276 158.239 150.89M165.512 146.549C164.723 146.356 163.88 146.029 163 145.549C159.636 143.714 153.137 138.256 148.325 134C145.808 131.773 142.728 130.269 139.408 129.745L135 129.049M165.512 146.549C165.678 147.715 164.7 151.049 159.5 151.049C159.1 151.049 158.679 150.994 158.239 150.89M131.5 135.549L135.035 136.079C139.196 136.703 142.933 138.895 145.874 141.905C149.718 145.839 154.601 150.031 158.239 150.89" stroke="black" stroke-width="1.5"/>
<path d="M116.458 156.015C128.764 170.996 134.335 186.759 128.901 191.222C123.468 195.685 109.088 187.158 96.7821 172.177C84.4765 157.195 79.0011 133.691 81.0012 132.048C81.6099 131.548 104.153 141.034 116.458 156.015Z" fill="black"/>
<path d="M9.5 105.048C30 110.381 77 125.648 101 144.048C131 167.048 135.5 186.548 128.5 191.048C121.5 195.548 108 184.048 101 177.048C94 170.048 76 146.548 81 122.048C86 97.5481 146.642 110.269 207.5 122.048C246.362 129.57 286.45 110.732 300.757 79.6716M370.5 110.048C359.333 112.381 330.2 110.048 303 82.0481C302.232 81.2578 301.485 80.4655 300.757 79.6716M300.757 79.6716C269.249 45.3062 274.669 8.02549 282 7.04807C289.5 6.04807 309.5 20.5481 306 60.0481C305.385 66.9899 303.569 73.5668 300.757 79.6716Z" stroke="black" stroke-width="1.5"/>
<path d="M306 60.0481C309.5 20.5481 289.5 6.04807 282 7.04807C274.749 8.01485 269.367 44.4987 299.741 78.5481L300.757 79.6716C303.569 73.5668 305.385 66.9899 306 60.0481Z" fill="black"/>
<path d="M300.757 79.6716C303.569 73.5668 305.385 66.9899 306 60.0481C309.5 20.5481 289.5 6.04807 282 7.04807C274.749 8.01485 269.367 44.4987 299.741 78.5481M300.757 79.6716C300.414 79.2974 300.075 78.9229 299.741 78.5481M300.757 79.6716L299.741 78.5481" stroke="black" stroke-width="1.5"/>
<path d="M190.225 102.276C192.92 102.276 196.152 101.505 198.533 98.1266C200.913 94.7479 200.967 91.5038 200.827 89.0812C200.967 91.5038 200.639 95.5741 203.393 98.6558C206.147 101.737 208.841 102.392 210.847 102.276C209.243 102.369 206.185 102.384 203.767 105.116C201.349 107.849 200.711 112.585 200.694 114.612C200.586 110.432 199.045 102.276 190.225 102.276Z" stroke="black" stroke-width="1.5"/>
<path d="M256.5 37L290 25L300.5 59L256.5 78.9591C256.108 81.0662 253.263 84.8936 248.301 84.5725C249.383 84.7392 251 85.772 251 88.0481C251 92.0481 245.5 92.5481 243 92.5481H230C226.5 92.5481 223 92.0481 221.5 88.5481C220.3 85.7481 221.167 82.839 222 81.6723C217.499 79.5142 219.095 72.9865 220.5 70.0082C219.673 68.8463 219.559 67.7015 219.688 67.0481C214.947 69.4523 210.229 71.8997 208.5 72.5481C204.5 74.0481 197 77.0481 195 73.5481C193.4 70.7481 196.5 67.0481 200.5 64.5481L215.728 55.2035C220.236 52.4376 224.955 50.0336 229.843 48.0141L256.5 37Z" fill="white"/>
<path d="M248 84.5481C249.08 83.7078 251.659 81.6457 255 78.9591M248 84.5481C245.026 86.8237 240.256 90.1335 237 89.0481C235.437 88.5273 233.499 86.6047 235.333 83.0481M248 84.5481C248.222 84.3778 247.791 84.7105 248 84.5481ZM248 84.5481C249.049 84.5481 251 85.5481 251 88.0481C251 92.0481 245.5 92.5481 243 92.5481C239.5 92.5481 232.8 92.5481 230 92.5481C226.5 92.5481 223 92.0481 221.5 88.5481C220.3 85.7481 221.167 82.839 222 81.6723M248 84.5481L255 78.9591M248 84.5481C253.148 85.0481 256.1 81.1086 256.5 78.9591M277 58.5481C270.234 64.0306 262.792 72.6933 255 78.9591M219.688 67.0481C214.947 69.4523 210.229 71.8997 208.5 72.5481C204.5 74.0481 197 77.0481 195 73.5481C193.4 70.7481 196.5 67.0481 200.5 64.5481L215.728 55.2035C220.236 52.4376 224.955 50.0336 229.843 48.0141L256.5 37L290 25L300.5 59L256.5 78.9591M219.688 67.0481C223.173 65.2807 226.67 63.5367 229 62.5481C230.294 61.9993 231.977 61.2926 233.87 60.5481C241.485 57.552 247.477 56.9437 250 60.5481C253.5 65.5481 242.5 74.5481 237.5 80.0481C236.494 81.1541 235.794 82.1529 235.333 83.0481M219.688 67.0481C219.559 67.7015 219.673 68.8463 220.5 70.0082M245 72.322C239.5 72.822 228 74.1481 224 72.5481C222.24 71.8442 221.15 70.9209 220.5 70.0082M220.5 70.0082C219 73.1882 217.282 80.4145 223 82.0481C226.5 83.0481 235.333 83.0481 235.333 83.0481M256.5 78.9591C256.5 78.4954 256.5 78.3889 256.5 77.7522" stroke="black" stroke-width="1.5"/>
<path d="M235 86.5488C236.5 84.7155 240.1 81.0488 242.5 81.0488C245.5 81.0488 246.5 84.5488 245 86.5488M195 72.5488C198.667 71.2155 206.1 67.9488 206.5 65.5488C206.9 63.1488 204.667 62.5488 203.5 62.5488" stroke="black" stroke-width="1.5"/>
<path d="M133 131.047C127.537 138.461 134 146.201 140 142.047C146.5 137.547 154.5 127.047 157.5 124.047C160.5 121.047 163.5 117.547 167 119.547C170 121.262 168.5 125.547 167 128.047L153.663 149.164C150.576 154.052 146.712 158.423 141.9 161.626C136.868 164.976 131.794 168.018 131 168.547C129.5 169.547 119.336 180.047 119.336 180.047C109.169 171.214 94 152.047 94 152.047C94 152.047 99.4372 144.798 105.62 137.249C110.728 131.013 116.713 125.576 123.102 120.661L139.5 108.047C143 105.714 151.4 99.9473 155 97.5472C159 94.8804 163.304 93.7295 165.5 95.0472C168 96.5472 167 100.647 164 103.047C161.239 105.256 140 121.547 133 131.047Z" fill="white" stroke="black" stroke-width="1.5"/>
<path d="M162.001 120.049C159.334 122.882 156.301 128.049 159.501 130.049C162.701 132.049 166.501 127.215 168.501 124.049M154.001 98.5488C153.834 99.5488 154.101 100.649 156.501 101.049C158.901 101.449 164.168 98.2155 166.501 96.0488" stroke="black" stroke-width="1.5"/>
<path fill-rule="evenodd" clip-rule="evenodd" d="M87.7793 159.003L96.4711 148.5L122.971 176.5L112.764 187.221C109.621 185.08 106.309 182.319 103.019 179.049L95.8122 170.977C92.6074 166.946 89.9028 162.876 87.7793 159.003Z" fill="#F6F6F6"/>
<path d="M96.4711 148.5L97.0158 147.984L96.4334 147.369L95.8933 148.022L96.4711 148.5ZM87.7793 159.003L87.2015 158.524L86.8769 158.917L87.1216 159.363L87.7793 159.003ZM122.971 176.5L123.514 177.017L124.005 176.502L123.516 175.984L122.971 176.5ZM112.764 187.221L112.341 187.841L112.868 188.199L113.307 187.738L112.764 187.221ZM103.019 179.049L102.459 179.549L102.474 179.565L102.49 179.581L103.019 179.049ZM95.8122 170.977L95.2251 171.444L95.2384 171.461L95.2527 171.477L95.8122 170.977ZM95.8933 148.022L87.2015 158.524L88.3571 159.481L97.0489 148.978L95.8933 148.022ZM123.516 175.984L97.0158 147.984L95.9263 149.016L122.426 177.016L123.516 175.984ZM113.307 187.738L123.514 177.017L122.428 175.983L112.22 186.704L113.307 187.738ZM113.186 186.601C110.087 184.49 106.81 181.76 103.548 178.517L102.49 179.581C105.808 182.878 109.155 185.671 112.341 187.841L113.186 186.601ZM95.2527 171.477L102.459 179.549L103.578 178.549L96.3716 170.478L95.2527 171.477ZM96.3993 170.511C93.219 166.51 90.5384 162.475 88.437 158.642L87.1216 159.363C89.2671 163.277 91.9959 167.382 95.2251 171.444L96.3993 170.511Z" fill="black"/>
<path d="M143.727 67.2299C148.288 67.2299 153.757 65.9261 157.785 60.2089C161.813 54.4918 161.904 49.0024 161.667 44.903C161.904 49.0024 161.349 55.8897 166.009 61.1043C170.669 66.3189 175.228 67.4262 178.622 67.2299C175.907 67.387 170.732 67.4121 166.641 72.036C162.55 76.66 161.47 84.6745 161.441 88.1037C161.259 81.0305 158.652 67.2299 143.727 67.2299Z" stroke="black" stroke-width="1.5"/>
<path fill-rule="evenodd" clip-rule="evenodd" d="M299.628 20.8577L273.5 31.0003L284 66.5003L306.213 57.2501C307.241 40.8037 304.096 28.9235 299.628 20.8577Z" fill="#F6F6F6"/>
<path d="M273.5 31.0003L273.229 30.3012L272.585 30.551L272.781 31.2131L273.5 31.0003ZM299.628 20.8577L300.284 20.4942L299.967 19.9216L299.356 20.1585L299.628 20.8577ZM284 66.5003L283.281 66.7131L283.518 67.5137L284.288 67.1927L284 66.5003ZM306.213 57.2501L306.502 57.9425L306.933 57.7629L306.962 57.2969L306.213 57.2501ZM273.771 31.6995L299.899 21.5568L299.356 20.1585L273.229 30.3012L273.771 31.6995ZM284.719 66.2876L274.219 30.7876L272.781 31.2131L283.281 66.7131L284.719 66.2876ZM305.925 56.5577L283.712 65.808L284.288 67.1927L306.502 57.9425L305.925 56.5577ZM306.962 57.2969C307.997 40.7323 304.833 28.7051 300.284 20.4942L298.972 21.2211C303.36 29.1418 306.485 40.875 305.465 57.2033L306.962 57.2969Z" fill="black"/>
</svg>
