<svg width="582" height="84" viewBox="0 0 582 84" fill="none" xmlns="http://www.w3.org/2000/svg">
<path d="M576.386 1.2759C516.487 -1.93933 482.105 43.1744 477.309 40.8112C469.543 36.0893 449.167 6.85882 444.323 26.5213C426.625 98.3601 355.492 56.2292 305.663 40.8112" stroke="black" stroke-width="1.5"/>
<path d="M4.43189 80.3464C43.4274 91.0076 51.2696 58.8062 56.1137 39.1437C60.9577 19.4813 81.3339 48.7118 89.0996 53.4337C93.8958 55.7969 136.089 2.61984 226.711 21.0776" stroke="black" stroke-width="1.5"/>
<path d="M234.358 67.1204C237.253 65.6415 238.963 62.9083 240.6 58.8595C241.894 62.0872 243.559 65.2944 247.005 67.084C243.776 69.2411 242.365 70.6383 240.411 75.6942C240.284 73.392 237.805 68.91 234.358 67.1204Z" stroke="black" stroke-width="1.5"/>
<path d="M255.614 45.9231C263.411 41.3632 267.907 33.0023 272.129 20.6333C275.841 30.4464 280.562 40.1905 290.053 45.5817C281.384 52.2146 277.622 56.4985 272.597 71.9425C272.117 64.9284 265.105 51.3143 255.614 45.9231Z" stroke="black" stroke-width="1.5"/>
</svg>
