<svg width="957" height="446" viewBox="0 0 957 446" fill="none" xmlns="http://www.w3.org/2000/svg">
<path d="M925.863 60.8562C762.13 16.0922 729.202 151.299 708.863 233.857C688.524 316.415 602.969 193.683 570.363 173.856C550.225 163.934 436.002 363 33.5019 334.5" stroke="black" stroke-width="1.5"/>
<circle cx="27" cy="334" r="7" stroke="black" stroke-width="1.5"/>
<rect x="211.641" y="254.66" width="152.646" height="152.646" rx="10" transform="rotate(-12.262 211.641 254.66)" fill="#F6F6F6" stroke="black" stroke-width="1.5"/>
<rect x="513.148" y="90.8574" width="152.646" height="152.646" rx="10" transform="rotate(22.0424 513.148 90.8574)" fill="#EBF3FF" stroke="black" stroke-width="1.5"/>
<path d="M387.77 268.99L288.045 245.957C279.861 305.5 247.324 363.048 232.079 384.379C257.15 392.126 312.835 409.196 335 415.499C368.485 357.23 384.132 293.548 387.77 268.99Z" fill="white" stroke="black" stroke-width="1.5"/>
<path d="M336.672 353.612L316.833 389.851L306.178 386.801L299.074 384.767L289.129 381.921L282.025 379.888L272.435 377.143L283.084 358.842L292.32 361.469L282.025 379.888L289.129 381.921L305.656 354.213L314.891 356.84L299.074 384.767L306.178 386.801L325.998 350.913L336.672 353.612Z" fill="black"/>
<path d="M279.567 342.812C276.171 353.018 267.004 368.122 262.845 374.398L272.435 377.143M323.937 391.884L316.833 389.851M316.833 389.851L336.672 353.612L325.998 350.913L306.178 386.801M316.833 389.851L306.178 386.801M306.178 386.801L299.074 384.767M299.074 384.767L314.891 356.84L305.656 354.213L289.129 381.921M299.074 384.767L289.129 381.921M289.129 381.921L282.025 379.888M282.025 379.888L292.32 361.469L283.084 358.842L272.435 377.143M282.025 379.888L272.435 377.143" stroke="black" stroke-width="1.5"/>
<path d="M294.652 272.232L365.843 289.506" stroke="black" stroke-width="1.5"/>
<path d="M289.254 293.578L359.043 310.061" stroke="black" stroke-width="1.5"/>
<path d="M283.926 313.486L352.96 330.651" stroke="black" stroke-width="1.5"/>
<path d="M534.516 238.313L508.696 189.741C508.696 189.741 524.427 163.39 558.874 149.572C592.426 136.114 590.267 156.984 651.707 123.892L673.181 177.367C617.172 203.015 619.513 190.498 587.427 202.33C561.758 211.796 541.458 230.263 534.516 238.313Z" fill="white" stroke="black" stroke-width="1.5"/>
<path d="M542.106 215.268L516.286 166.696C516.286 166.696 532.017 140.345 566.463 126.527C600.016 113.069 597.857 133.939 659.297 100.847L680.77 154.322C624.762 179.97 627.103 167.453 595.017 179.285C569.348 188.751 549.047 207.218 542.106 215.268Z" fill="white" stroke="black" stroke-width="1.5"/>
<ellipse cx="595.327" cy="148.616" rx="20.5107" ry="12.6971" transform="rotate(-21.8789 595.327 148.616)" fill="black" stroke="black" stroke-width="1.5"/>
<path d="M640.074 110.65C643.29 118.659 653.202 122.219 662.212 118.601C663.458 118.1 664.621 117.489 665.693 116.785" stroke="black" stroke-width="1.5"/>
<path d="M528.285 152.028C530.243 153.555 531.806 155.553 532.768 157.95C535.936 165.838 531.428 175.1 522.684 178.835" stroke="black" stroke-width="1.5"/>
<path d="M533.491 199.061C535.487 196.059 538.493 193.543 542.247 192.035C550.041 188.906 558.509 191.147 562.735 196.992" stroke="black" stroke-width="1.5"/>
<path d="M674.721 139.256C673.46 139.49 672.197 139.853 670.951 140.353C661.941 143.971 657.244 153.397 660.46 161.406C660.647 161.872 660.857 162.323 661.088 162.758" stroke="black" stroke-width="1.5"/>
</svg>
